<svg version="1.1" id="Layer_1" xmlns="http://www.w3.org/2000/svg" xmlns:xlink="http://www.w3.org/1999/xlink" x="0px" y="0px"
	 width="100%" viewBox="0 0 512 512" enable-background="new 0 0 512 512" xml:space="preserve">
<path fill="#000000" opacity="1.000000" stroke="none" 
	d="
M64.000000,513.000000 
	C43.005482,513.000000 22.010960,513.000000 1.012330,513.000000 
	C1.008220,342.383362 1.008220,171.766693 1.008220,1.075023 
	C171.572098,1.075023 342.144226,1.075023 512.858154,1.075023 
	C512.858154,171.666580 512.858154,342.333282 512.858154,513.000000 
	C492.256226,513.000000 471.595093,513.000000 450.195435,512.649048 
	C453.203552,505.799896 451.277710,502.015533 444.213440,501.995422 
	C429.466431,501.953491 414.719452,501.912018 399.963013,501.410461 
	C399.918060,488.977814 399.882477,477.005066 399.918182,464.566406 
	C399.942200,441.054810 399.894928,418.009094 399.908081,394.500427 
	C399.982483,334.836426 399.999573,275.635376 400.002655,216.434326 
	C400.002838,212.946106 399.890045,209.457870 399.897766,205.507263 
	C400.003693,195.058929 400.041748,185.072968 400.542786,175.048523 
	C407.261078,175.010025 413.516479,175.010025 419.999725,175.010025 
	C419.999725,197.393295 419.992096,219.168381 420.005676,240.943481 
	C420.008636,245.672119 422.027710,247.869797 426.751282,247.969406 
	C432.738495,248.095703 438.730347,248.003922 444.720215,247.999405 
	C448.678009,247.996414 450.867950,246.078171 450.990845,242.059235 
	C451.124481,237.688705 448.794647,235.907990 444.599518,235.982239 
	C440.165558,236.060715 435.729156,235.999847 431.000275,235.999847 
	C431.000275,233.818085 431.000275,232.184204 431.000275,230.550323 
	C431.000305,210.417740 430.920197,190.284576 431.062836,170.153000 
	C431.094238,165.724533 429.614563,163.830383 425.029999,163.936676 
	C416.717041,164.129410 408.395264,163.940155 400.044800,163.448334 
	C400.015991,150.687805 400.019531,138.389328 400.489471,126.062279 
	C411.428223,126.023560 421.900970,125.950104 432.372772,126.021759 
	C442.059265,126.088036 450.232086,114.656998 444.249207,105.013397 
	C434.553741,89.385651 424.022095,74.276665 413.814484,58.706276 
	C413.599609,58.173862 413.339111,57.988892 413.001892,57.953316 
	C412.999786,57.997650 413.088470,58.001675 412.986450,57.750114 
	C412.588501,57.302914 412.292572,57.107277 412.022736,56.946953 
	C412.048798,56.982265 412.121948,56.933735 412.059631,56.583439 
	C406.651733,48.149857 401.705048,39.765297 395.875732,32.047348 
	C384.495239,16.979723 369.093719,7.084867 350.356842,6.345482 
	C319.950684,5.145609 289.458435,6.126954 258.537079,6.127443 
	C228.685883,6.050540 199.299973,6.084017 169.914459,5.992909 
	C157.583069,5.954677 146.341232,9.368567 135.671722,16.084105 
	C129.703156,21.197102 122.958321,25.381493 118.627899,31.325018 
	C108.112320,45.757687 98.719261,61.008217 88.908646,75.952835 
	C88.943329,75.976425 88.993164,75.908951 88.759666,76.003746 
	C88.391472,76.387932 88.256767,76.677322 87.952507,77.270020 
	C81.811821,86.453354 75.527481,95.142067 69.954468,104.265289 
	C63.949951,114.094902 70.957153,125.917557 82.477982,125.995979 
	C92.969254,126.067398 103.461128,126.050461 113.972496,126.533188 
	C114.051834,153.320023 114.111404,179.646149 114.100662,206.438004 
	C114.019753,255.797043 113.997711,304.690338 114.006348,353.583649 
	C114.008614,366.385864 114.106186,379.188080 114.093697,392.455261 
	C114.063667,417.273071 114.099922,441.625854 114.076019,466.444946 
	C113.994980,478.564209 113.974091,490.217194 113.490112,501.922668 
	C98.303024,501.982025 83.577591,502.106079 68.855843,501.927155 
	C64.183937,501.870361 62.558628,503.926453 63.022953,508.196503 
	C63.198833,509.813965 63.665745,511.399780 64.000000,513.000000 
z"/>
<path fill="#09D49F" opacity="1.000000" stroke="none" 
	d="
M399.972443,501.870361 
	C414.719452,501.912018 429.466431,501.953491 444.213440,501.995422 
	C451.277710,502.015533 453.203552,505.799896 449.728455,512.649048 
	C321.645782,513.000000 193.291550,513.000000 64.468658,513.000000 
	C63.665745,511.399780 63.198833,509.813965 63.022953,508.196503 
	C62.558628,503.926453 64.183937,501.870361 68.855843,501.927155 
	C83.577591,502.106079 98.303024,501.982025 113.950226,502.034668 
	C123.527412,502.119049 132.182114,502.206421 140.834763,502.109924 
	C142.342728,502.093079 143.842041,501.301208 145.739517,500.942230 
	C147.381226,501.352081 148.628662,501.978271 149.876282,501.978607 
	C171.320602,501.984467 192.764923,501.913116 214.642715,501.936340 
	C218.067856,501.967651 221.059525,501.921326 224.513214,501.937378 
	C246.511246,501.954315 268.047272,501.908966 290.061523,501.949463 
	C293.395905,501.985077 296.252106,501.934845 299.566101,501.951355 
	C308.020294,502.069336 316.017029,502.198303 324.012848,502.154388 
	C337.664429,502.079376 351.315399,501.895905 365.433777,501.825745 
	C376.958374,501.902039 388.015839,501.910553 399.300629,501.954285 
	C399.527985,501.989532 399.972443,501.870392 399.972443,501.870361 
z"/>
<path fill="#495A83" opacity="1.000000" stroke="none" 
	d="
M259.002533,6.187500 
	C289.458435,6.126954 319.950684,5.145609 350.356842,6.345482 
	C369.093719,7.084867 384.495239,16.979723 395.875732,32.047348 
	C401.705048,39.765297 406.651733,48.149857 411.637024,56.582539 
	C409.310211,56.623238 407.350830,56.112061 405.375946,56.043137 
	C398.997437,55.820507 394.757050,59.818928 395.107391,66.110596 
	C395.249054,68.654640 396.238739,71.281219 397.363342,73.619781 
	C404.799530,89.083084 395.507965,103.984268 378.242676,103.988663 
	C290.749359,104.010948 203.256027,104.002853 115.762695,103.993843 
	C105.760223,103.992821 102.511353,99.014458 106.134651,89.582603 
	C107.798927,85.250298 107.582748,81.071747 104.052826,77.567993 
	C100.642006,74.182472 96.817505,73.048775 92.259720,75.270187 
	C91.261246,75.756836 90.009216,75.723259 88.873962,75.929253 
	C98.719261,61.008217 108.112320,45.757687 118.627899,31.325018 
	C122.958321,25.381493 129.703156,21.197102 135.661758,16.475285 
	C135.930359,17.067999 135.959412,17.429159 135.832870,17.723377 
	C133.570343,22.983213 133.845917,27.921097 138.419067,31.752899 
	C143.113388,35.686234 147.836182,33.670849 152.890259,31.735992 
	C157.913742,29.812853 163.421646,28.219505 168.737930,28.153328 
	C196.717911,27.805042 224.704468,27.995054 252.688751,27.974646 
	C257.465454,27.971163 262.107727,27.425451 264.987427,22.892225 
	C268.965759,16.629517 266.998871,11.238789 259.002533,6.187500 
M315.500000,48.999390 
	C293.530304,48.999588 271.560547,48.984344 249.590881,49.006966 
	C239.665680,49.017181 230.515549,51.828842 222.424850,57.494930 
	C218.285873,60.393532 213.731842,63.265297 213.049881,69.137184 
	C212.111984,77.212410 218.245392,82.961365 228.095978,82.969200 
	C267.375153,83.000443 306.654358,82.983337 345.933563,82.981079 
	C348.762756,82.980919 351.606079,83.133675 354.418579,82.910255 
	C363.522858,82.187019 369.022583,74.858147 366.678314,66.744217 
	C363.967224,57.360550 353.266296,49.118301 343.462646,49.020947 
	C334.475922,48.931702 325.487610,49.000324 315.500000,48.999390 
z"/>
<path fill="#49416F" opacity="1.000000" stroke="none" 
	d="
M88.908646,75.952835 
	C90.009216,75.723259 91.261246,75.756836 92.259720,75.270187 
	C96.817505,73.048775 100.642006,74.182472 104.052826,77.567993 
	C107.582748,81.071747 107.798927,85.250298 106.134651,89.582603 
	C102.511353,99.014458 105.760223,103.992821 115.762695,103.993843 
	C203.256027,104.002853 290.749359,104.010948 378.242676,103.988663 
	C395.507965,103.984268 404.799530,89.083084 397.363342,73.619781 
	C396.238739,71.281219 395.249054,68.654640 395.107391,66.110596 
	C394.757050,59.818928 398.997437,55.820507 405.375946,56.043137 
	C407.350830,56.112061 409.310211,56.623238 411.699341,56.932835 
	C412.121948,56.933735 412.048798,56.982265 412.171295,57.160286 
	C412.558685,57.559425 412.823578,57.780544 413.088470,58.001667 
	C413.088470,58.001675 412.999786,57.997650 413.113678,58.149132 
	C413.384857,58.562286 413.590149,58.778294 413.843506,58.948647 
	C424.022095,74.276665 434.553741,89.385651 444.249207,105.013397 
	C450.232086,114.656998 442.059265,126.088036 432.372772,126.021759 
	C421.900970,125.950104 411.428223,126.023560 400.022980,125.997391 
	C389.050018,126.002319 379.009949,126.043587 368.503418,126.056137 
	C293.373810,126.041870 218.710709,126.056313 143.579742,126.005219 
	C133.392181,125.983940 123.672455,126.028206 113.952736,126.072464 
	C103.461128,126.050461 92.969254,126.067398 82.477982,125.995979 
	C70.957153,125.917557 63.949951,114.094902 69.954468,104.265289 
	C75.527481,95.142067 81.811821,86.453354 88.133881,77.126305 
	C88.694466,76.449051 88.863922,76.192268 88.993164,75.908951 
	C88.993164,75.908951 88.943329,75.976425 88.908646,75.952835 
z"/>
<path fill="#BD7955" opacity="1.000000" stroke="none" 
	d="
M114.159988,391.990295 
	C114.106186,379.188080 114.008614,366.385864 114.006348,353.583649 
	C113.997711,304.690338 114.019753,255.797043 114.558243,206.442169 
	C124.667175,205.977066 134.248199,205.973495 143.899719,206.436310 
	C144.015274,249.578827 144.060287,292.254974 143.662567,334.948730 
	C137.791412,334.659912 132.435684,335.172760 130.651840,341.298126 
	C129.721375,344.493103 130.073776,348.212830 130.500763,351.613434 
	C131.025406,355.791992 133.881180,357.929779 138.118332,357.995636 
	C142.434052,358.062714 146.751053,358.046234 150.809204,358.314331 
	C144.956604,359.855835 143.381836,363.678680 144.028229,369.381683 
	C144.058594,376.062073 144.102020,382.268158 144.116821,388.822021 
	C143.995407,390.106842 143.902634,391.043884 143.353165,391.987427 
	C133.317642,391.992676 123.738815,391.991486 114.159988,391.990295 
z"/>
<path fill="#B36555" opacity="1.000000" stroke="none" 
	d="
M399.847687,394.963409 
	C399.894928,418.009094 399.942200,441.054810 399.742615,464.710815 
	C399.279968,465.537811 399.102844,465.782532 398.499664,466.048065 
	C391.047150,466.037994 384.059387,466.030670 377.071625,466.033508 
	C370.186340,466.036285 370.186340,466.040771 369.587219,472.933411 
	C368.942780,472.142792 368.520203,471.526825 368.395874,470.633331 
	C368.797028,467.445923 368.899933,464.536072 369.009888,461.228210 
	C369.010437,452.267517 369.003906,443.704895 368.999634,434.695465 
	C368.719238,431.498779 368.436646,428.748901 368.278107,425.641174 
	C368.593262,416.588654 368.784393,407.893951 368.981445,398.744690 
	C369.079498,396.185883 369.171631,394.081665 369.715790,391.983246 
	C374.492859,391.994232 378.817871,392.007141 383.142914,392.002777 
	C389.984863,391.995880 389.995605,391.990997 389.995880,385.153687 
	C389.998413,325.434723 389.996735,265.715729 390.445984,205.987350 
	C393.592285,205.994354 396.289001,206.010757 398.988525,206.493103 
	C398.992645,267.355652 398.984619,327.752258 399.031097,388.148834 
	C399.032837,390.420563 399.563477,392.691895 399.847687,394.963409 
z"/>
<path fill="#496DA0" opacity="1.000000" stroke="none" 
	d="
M258.537079,6.127443 
	C266.998871,11.238789 268.965759,16.629517 264.987427,22.892225 
	C262.107727,27.425451 257.465454,27.971163 252.688751,27.974646 
	C224.704468,27.995054 196.717911,27.805042 168.737930,28.153328 
	C163.421646,28.219505 157.913742,29.812853 152.890259,31.735992 
	C147.836182,33.670849 143.113388,35.686234 138.419067,31.752899 
	C133.845917,27.921097 133.570343,22.983213 135.832870,17.723377 
	C135.959412,17.429159 135.930359,17.067999 135.983688,16.346817 
	C146.341232,9.368567 157.583069,5.954677 169.914459,5.992909 
	C199.299973,6.084017 228.685883,6.050540 258.537079,6.127443 
z"/>
<path fill="#BD976E" opacity="1.000000" stroke="none" 
	d="
M398.985687,206.027145 
	C396.289001,206.010757 393.592285,205.994354 389.977966,205.978363 
	C382.434814,205.970505 375.809357,205.962219 369.111816,205.494141 
	C368.998627,195.050446 368.957550,185.066559 369.159546,174.755020 
	C369.240814,170.923996 369.078949,167.420624 368.951477,163.454910 
	C368.980560,150.690002 368.975220,138.387436 368.969879,126.084854 
	C379.009949,126.043587 389.050018,126.002319 399.556580,126.025955 
	C400.019531,138.389328 400.015991,150.687805 399.789001,163.768768 
	C399.737000,168.063156 399.908417,171.575073 400.079834,175.087006 
	C400.041748,185.072968 400.003693,195.058929 399.686523,205.518753 
	C399.407379,205.992615 398.985687,206.027145 398.985687,206.027145 
z"/>
<path fill="#BD976E" opacity="1.000000" stroke="none" 
	d="
M143.829208,205.969940 
	C134.248199,205.973495 124.667175,205.977066 114.628571,205.976440 
	C114.111404,179.646149 114.051834,153.320023 113.972496,126.533188 
	C123.672455,126.028206 133.392181,125.983940 143.559799,126.466118 
	C144.030396,139.311127 144.053085,151.629700 144.041855,164.408752 
	C144.030548,168.263382 144.053162,171.657562 144.044037,175.516174 
	C143.951248,185.977066 143.890228,195.973511 143.829208,205.969940 
z"/>
<path fill="#B36555" opacity="1.000000" stroke="none" 
	d="
M114.093697,392.455261 
	C123.738815,391.991486 133.317642,391.992676 143.401978,392.405640 
	C144.153107,395.221252 144.398727,397.625061 144.562622,400.419067 
	C144.581253,408.880890 144.681610,416.952484 144.543060,425.355072 
	C144.202942,429.161926 144.101746,432.637848 144.032364,436.574463 
	C144.040619,444.937042 144.017044,452.838898 144.004852,461.178833 
	C143.963562,463.067413 143.910873,464.517914 143.398712,465.986511 
	C133.338226,465.995972 123.737206,465.987335 114.136177,465.978699 
	C114.099922,441.625854 114.063667,417.273071 114.093697,392.455261 
z"/>
<path fill="#C2C2C2" opacity="1.000000" stroke="none" 
	d="
M400.542755,175.048523 
	C399.908417,171.575073 399.737000,168.063156 399.821350,164.230789 
	C408.395264,163.940155 416.717041,164.129410 425.029999,163.936676 
	C429.614563,163.830383 431.094238,165.724533 431.062836,170.153000 
	C430.920197,190.284576 431.000305,210.417740 431.000275,230.550323 
	C431.000275,232.184204 431.000275,233.818085 431.000275,235.999847 
	C435.729156,235.999847 440.165558,236.060715 444.599518,235.982239 
	C448.794647,235.907990 451.124481,237.688705 450.990845,242.059235 
	C450.867950,246.078171 448.678009,247.996414 444.720215,247.999405 
	C438.730347,248.003922 432.738495,248.095703 426.751282,247.969406 
	C422.027710,247.869797 420.008636,245.672119 420.005676,240.943481 
	C419.992096,219.168381 419.999725,197.393295 419.999725,175.010025 
	C413.516479,175.010025 407.261078,175.010025 400.542755,175.048523 
z"/>
<path fill="#9B4847" opacity="1.000000" stroke="none" 
	d="
M114.076019,466.444977 
	C123.737206,465.987335 133.338226,465.995972 143.441956,466.391998 
	C143.967056,468.664520 143.989456,470.549652 144.026321,472.942505 
	C144.052826,477.960480 144.064865,482.470734 143.999878,487.434052 
	C144.397018,492.213837 144.871185,496.540558 145.345337,500.867310 
	C143.842041,501.301208 142.342728,502.093079 140.834763,502.109924 
	C132.182114,502.206421 123.527412,502.119049 114.413307,501.982117 
	C113.974091,490.217194 113.994980,478.564209 114.076019,466.444977 
z"/>
<path fill="#B7755D" opacity="1.000000" stroke="none" 
	d="
M398.988525,206.493103 
	C398.985687,206.027145 399.407379,205.992615 399.618622,205.981140 
	C399.890045,209.457870 400.002838,212.946106 400.002655,216.434326 
	C399.999573,275.635376 399.982483,334.836426 399.908081,394.500427 
	C399.563477,392.691895 399.032837,390.420563 399.031097,388.148834 
	C398.984619,327.752258 398.992645,267.355652 398.988525,206.493103 
z"/>
<path fill="#B7755D" opacity="1.000000" stroke="none" 
	d="
M398.964417,466.055267 
	C399.102844,465.782532 399.279968,465.537811 399.671356,465.176697 
	C399.882477,477.005066 399.918060,488.977814 399.963013,501.410492 
	C399.972443,501.870392 399.527985,501.989532 399.295532,501.491455 
	C399.030182,489.347321 398.997314,477.701294 398.964417,466.055267 
z"/>
<path fill="#495A83" opacity="1.000000" stroke="none" 
	d="
M88.759666,76.003746 
	C88.863922,76.192268 88.694466,76.449051 88.303436,76.822998 
	C88.256767,76.677322 88.391472,76.387932 88.759666,76.003746 
z"/>
<path fill="#495A83" opacity="1.000000" stroke="none" 
	d="
M413.814514,58.706272 
	C413.590149,58.778294 413.384857,58.562286 413.115784,58.104801 
	C413.339111,57.988892 413.599609,58.173862 413.814514,58.706272 
z"/>
<path fill="#495A83" opacity="1.000000" stroke="none" 
	d="
M412.986450,57.750107 
	C412.823578,57.780544 412.558685,57.559425 412.145233,57.124973 
	C412.292572,57.107277 412.588501,57.302914 412.986450,57.750107 
z"/>
<path fill="#BE353F" opacity="1.000000" stroke="none" 
	d="
M364.966644,501.757996 
	C351.315399,501.895905 337.664429,502.079376 324.012848,502.154388 
	C316.017029,502.198303 308.020294,502.069336 299.379089,501.684082 
	C297.199615,499.592834 295.665070,497.835663 294.097961,495.623474 
	C294.017517,492.435822 293.969666,489.703247 293.986481,486.762695 
	C294.051147,486.554749 294.162567,486.133667 294.534424,486.282349 
	C296.372498,486.620361 297.838593,486.973511 299.304932,486.974548 
	C322.823608,486.991241 346.342285,486.963013 369.894104,487.391357 
	C370.809204,493.381317 369.267517,498.061279 364.966644,501.757996 
z"/>
<path fill="#FBA192" opacity="1.000000" stroke="none" 
	d="
M145.739517,500.942200 
	C144.871185,496.540558 144.397018,492.213837 144.462891,487.439301 
	C169.600677,486.983032 194.198441,486.974548 218.887024,486.981750 
	C218.977859,486.997375 219.158722,487.033173 219.117050,487.468750 
	C219.064926,490.766205 219.054474,493.628082 218.809555,496.754517 
	C217.119812,498.632294 215.664536,500.245514 214.209259,501.858734 
	C192.764923,501.913116 171.320602,501.984467 149.876282,501.978607 
	C148.628662,501.978271 147.381226,501.352081 145.739517,500.942200 
z"/>
<path fill="#F06762" opacity="1.000000" stroke="none" 
	d="
M219.044022,496.489990 
	C219.054474,493.628082 219.064926,490.766205 219.571182,487.457642 
	C244.685257,486.997498 269.303528,486.984070 293.921814,486.970642 
	C293.969666,489.703247 294.017517,492.435822 293.993195,495.945679 
	C292.475098,498.436462 291.029175,500.150024 289.583282,501.863586 
	C268.047272,501.908966 246.511246,501.954315 224.323029,501.667114 
	C222.128540,499.719696 220.586288,498.104858 219.044022,496.489990 
z"/>
<path fill="#9A4746" opacity="1.000000" stroke="none" 
	d="
M365.433777,501.825745 
	C369.267517,498.061279 370.809204,493.381317 369.917542,486.932556 
	C369.874878,481.721008 369.841980,477.414581 369.809082,473.108124 
	C370.186340,466.040771 370.186340,466.036285 377.071625,466.033508 
	C384.059387,466.030670 391.047150,466.037994 398.499664,466.048065 
	C398.997314,477.701294 399.030182,489.347321 399.068176,501.456177 
	C388.015839,501.910553 376.958374,501.902039 365.433777,501.825745 
z"/>
<path fill="#38313E" opacity="1.000000" stroke="none" 
	d="
M290.061523,501.949463 
	C291.029175,500.150024 292.475098,498.436462 294.025757,496.400696 
	C295.665070,497.835663 297.199615,499.592834 298.921234,501.617279 
	C296.252106,501.934845 293.395905,501.985077 290.061523,501.949463 
z"/>
<path fill="#3F3442" opacity="1.000000" stroke="none" 
	d="
M218.809555,496.754517 
	C220.586288,498.104858 222.128540,499.719696 223.861008,501.604797 
	C221.059525,501.921326 218.067856,501.967651 214.642715,501.936340 
	C215.664536,500.245514 217.119812,498.632294 218.809555,496.754517 
z"/>
<path fill="#496EA1" opacity="1.000000" stroke="none" 
	d="
M316.000000,48.999390 
	C325.487610,49.000324 334.475922,48.931702 343.462646,49.020947 
	C353.266296,49.118301 363.967224,57.360550 366.678314,66.744217 
	C369.022583,74.858147 363.522858,82.187019 354.418579,82.910255 
	C351.606079,83.133675 348.762756,82.980919 345.933563,82.981079 
	C306.654358,82.983337 267.375153,83.000443 228.095978,82.969200 
	C218.245392,82.961365 212.111984,77.212410 213.049881,69.137184 
	C213.731842,63.265297 218.285873,60.393532 222.424850,57.494930 
	C230.515549,51.828842 239.665680,49.017181 249.590881,49.006966 
	C271.560547,48.984344 293.530304,48.999588 316.000000,48.999390 
z"/>
<path fill="#000000" opacity="1.000000" stroke="none" 
	d="
M144.075790,163.948273 
	C144.053085,151.629700 144.030396,139.311127 144.027649,126.531647 
	C218.710709,126.056313 293.373810,126.041870 368.503418,126.056137 
	C368.975220,138.387436 368.980560,150.690002 368.488342,163.489807 
	C360.017548,163.960648 352.044312,163.934280 344.042389,163.468399 
	C344.009094,161.704620 344.013245,160.380249 343.998383,159.056091 
	C343.932037,153.154099 342.082794,151.212906 336.031738,151.029648 
	C332.395905,150.919556 328.752014,151.075378 324.722076,151.229721 
	C321.280151,151.547531 318.227905,151.747314 314.911072,151.607574 
	C311.407715,151.190292 308.168945,151.112549 304.479797,150.971405 
	C300.697662,150.958008 297.365875,151.007996 293.564026,151.030884 
	C286.411255,151.105286 279.728516,151.206802 272.793884,151.204102 
	C272.361420,151.119995 272.180817,151.140106 271.549255,151.094376 
	C268.072418,151.145004 265.046448,151.261490 261.553345,151.324615 
	C254.724075,151.231735 248.362000,151.192215 241.728714,151.125519 
	C241.289810,151.168320 241.122116,151.238297 240.489639,151.281204 
	C233.338608,151.188736 226.652359,151.123352 219.518463,150.991699 
	C215.737076,150.961884 212.403351,150.998322 208.604919,151.020721 
	C204.795822,151.041855 201.451447,151.077042 197.716827,151.232239 
	C194.280945,151.548431 191.235291,151.744614 187.913681,151.601379 
	C184.344971,151.175201 181.051529,150.996994 177.759628,151.021591 
	C171.815964,151.066010 170.024261,152.979187 169.995590,159.034988 
	C169.987778,160.684387 169.924805,162.333542 169.425629,163.990295 
	C160.667999,163.981277 152.371887,163.964783 144.075790,163.948273 
z"/>
<path fill="#000000" opacity="1.000000" stroke="none" 
	d="
M143.899719,206.436310 
	C143.890228,195.973511 143.951248,185.977066 144.504791,175.493439 
	C153.293930,175.009888 161.590530,175.013535 169.933502,175.466400 
	C169.986618,177.393784 169.993286,178.871918 170.000107,180.350067 
	C170.025055,185.764954 171.565964,187.573807 177.117889,187.946823 
	C180.711914,188.188309 184.338867,187.939651 188.391113,187.944794 
	C191.889893,187.665634 194.948624,187.352280 198.219696,187.405579 
	C201.966095,187.837311 205.500137,187.902405 209.486908,188.030334 
	C213.287704,188.047256 216.635788,188.001328 220.440750,187.982605 
	C224.240555,187.977325 227.583481,187.944855 231.380585,187.989258 
	C234.899139,188.022354 237.963486,187.978561 241.483185,187.960114 
	C245.284317,188.012024 248.630096,188.038605 251.984436,188.529694 
	C252.052261,218.314651 252.111542,247.635086 252.104980,277.287598 
	C252.018585,278.071075 251.998032,278.522430 251.522095,278.985260 
	C247.719360,279.045868 244.372025,279.095032 240.559372,279.074463 
	C234.138931,279.004730 228.183792,279.004730 222.208954,279.004730 
	C225.166046,297.946625 228.051025,316.426605 230.472961,334.947815 
	C218.683990,335.063080 207.358017,335.137146 195.568878,335.122192 
	C178.105576,334.999146 161.105453,334.965118 144.105316,334.931122 
	C144.060287,292.254974 144.015274,249.578827 143.899719,206.436310 
z"/>
<path fill="#BD976E" opacity="1.000000" stroke="none" 
	d="
M143.662567,334.948730 
	C161.105453,334.965118 178.105576,334.999146 195.491364,335.470032 
	C194.917816,339.457184 193.014938,343.069458 193.243195,346.541656 
	C193.515884,350.689941 195.612106,354.718353 196.457855,358.828430 
	C193.172318,358.796722 190.347382,358.735260 187.168945,358.583496 
	C182.922531,358.464203 179.029587,358.435242 174.600372,358.338074 
	C166.398575,358.201996 158.733032,358.134186 151.067505,358.066345 
	C146.751053,358.046234 142.434052,358.062714 138.118332,357.995636 
	C133.881180,357.929779 131.025406,355.791992 130.500763,351.613434 
	C130.073776,348.212830 129.721375,344.493103 130.651840,341.298126 
	C132.435684,335.172760 137.791412,334.659912 143.662567,334.948730 
z"/>
<path fill="#E04A54" opacity="1.000000" stroke="none" 
	d="
M144.145447,388.474243 
	C144.102020,382.268158 144.058594,376.062073 144.492371,369.388702 
	C155.105392,368.925079 165.241791,368.874817 175.376541,368.980347 
	C177.285034,369.000244 179.187027,369.641052 181.063263,370.457031 
	C181.001221,374.628143 180.967941,378.337524 180.500702,382.036377 
	C178.415390,382.043335 176.748566,381.921265 175.115356,382.102448 
	C167.748016,382.919861 163.193436,387.711670 162.651917,394.695251 
	C158.770004,394.694122 155.349350,394.609680 151.604767,394.485596 
	C148.902374,392.455383 146.523911,390.464813 144.145447,388.474243 
z"/>
<path fill="#DF797D" opacity="1.000000" stroke="none" 
	d="
M181.092026,369.995331 
	C179.187027,369.641052 177.285034,369.000244 175.376541,368.980347 
	C165.241791,368.874817 155.105392,368.925079 144.505417,368.914398 
	C143.381836,363.678680 144.956604,359.855835 150.809204,358.314331 
	C158.733032,358.134186 166.398575,358.201996 174.818069,358.423096 
	C177.675629,360.699188 179.779236,362.822052 181.911743,365.335571 
	C182.004425,366.768005 182.068222,367.809784 181.985992,369.067627 
	C181.590652,369.520874 181.341339,369.758118 181.092026,369.995331 
z"/>
<path fill="#3F3442" opacity="1.000000" stroke="none" 
	d="
M144.116821,388.822021 
	C146.523911,390.464813 148.902374,392.455383 151.234070,394.560059 
	C149.006317,396.459076 146.825348,398.243988 144.644379,400.028900 
	C144.398727,397.625061 144.153107,395.221252 143.858673,392.399170 
	C143.902634,391.043884 143.995407,390.106842 144.116821,388.822021 
z"/>
<path fill="#EF8080" opacity="1.000000" stroke="none" 
	d="
M293.986481,486.762695 
	C269.303528,486.984070 244.685257,486.997498 219.612854,487.022064 
	C219.158722,487.033173 218.977859,486.997375 218.941528,486.524719 
	C218.934738,481.798584 218.964264,477.545044 219.248093,473.058167 
	C221.078018,470.938171 222.653610,469.051605 224.681274,467.151550 
	C234.188126,466.948364 243.242905,466.758636 252.663910,466.567871 
	C255.911636,466.565979 258.793121,466.565094 261.984009,466.688141 
	C262.924438,466.567291 263.555420,466.322510 264.186432,466.077728 
	C263.467560,465.385712 262.748688,464.693726 261.845093,463.773102 
	C257.972931,464.834564 258.606720,460.943024 257.049866,459.251343 
	C257.009644,455.246674 256.959015,451.681396 257.384827,448.083191 
	C272.677246,448.034241 287.493347,448.046478 302.309143,447.989227 
	C308.800293,447.964172 313.947540,443.655121 314.829712,437.459351 
	C315.132355,435.334045 314.958374,433.140839 315.424957,430.984467 
	C318.285248,430.702484 320.722748,430.414673 323.378387,430.350586 
	C324.809753,430.990784 326.022949,431.407257 327.552551,431.937378 
	C329.533905,433.261597 331.198792,434.472107 332.726898,435.583160 
	C333.446136,434.822998 334.765442,433.428589 336.473999,431.898376 
	C345.605377,431.482910 354.347473,431.203247 363.416870,431.000977 
	C365.495270,432.432983 367.246338,433.787598 368.997406,435.142242 
	C369.003906,443.704895 369.010437,452.267517 368.697876,461.386261 
	C366.593903,463.301880 364.808990,464.661377 362.554077,465.998260 
	C353.843994,465.912781 345.603851,465.849976 337.118652,465.548279 
	C334.863556,463.971008 332.853546,462.632629 330.843506,461.294220 
	C331.702423,461.440125 332.561310,461.586029 333.420227,461.731934 
	C331.176605,463.088837 328.932953,464.445740 326.244843,465.826721 
	C316.789703,466.010803 307.779022,466.170807 298.341125,466.334045 
	C295.349152,466.335541 292.784393,466.333832 289.916931,466.223083 
	C288.851501,466.114075 288.088745,466.114075 287.326019,466.114075 
	C287.297577,466.323456 287.269104,466.532806 287.240662,466.742188 
	C287.967041,466.905426 288.693451,467.068665 289.663513,467.473724 
	C291.569427,469.455566 293.231750,471.195618 294.763855,473.330414 
	C294.476593,477.861328 294.319580,481.997498 294.162598,486.133667 
	C294.162567,486.133667 294.051147,486.554749 293.986481,486.762695 
z"/>
<path fill="#BD7955" opacity="1.000000" stroke="none" 
	d="
M369.183868,205.953949 
	C375.809357,205.962219 382.434814,205.970505 389.528320,205.987762 
	C389.996735,265.715729 389.998413,325.434723 389.995880,385.153687 
	C389.995605,391.990997 389.984863,391.995880 383.142914,392.002777 
	C378.817871,392.007141 374.492859,391.994232 369.658752,391.661926 
	C369.073486,390.687225 368.997314,390.039703 368.954773,389.044708 
	C369.015533,388.466095 369.042664,388.234955 369.255310,387.854370 
	C369.671082,387.476868 369.844574,387.211700 369.950500,386.447021 
	C369.905487,380.286621 369.871277,374.588531 369.864685,368.513397 
	C368.474335,365.428711 367.056427,362.721100 365.992432,359.960632 
	C367.176666,359.298676 368.006989,358.689575 369.296661,358.069763 
	C371.913300,358.036255 374.425720,358.707153 376.144165,357.827301 
	C378.687225,356.525238 382.042419,354.480499 382.655090,352.127838 
	C385.826752,339.948547 381.885620,335.184021 369.392212,334.949066 
	C369.226318,334.945923 369.060547,334.936401 368.937683,334.467407 
	C368.987122,315.401703 368.973480,296.798492 369.005005,278.195312 
	C369.045776,254.114822 369.122589,230.034393 369.183868,205.953949 
z"/>
<path fill="#F8AD9D" opacity="1.000000" stroke="none" 
	d="
M323.160217,430.126862 
	C320.722748,430.414673 318.285248,430.702484 315.430359,430.994232 
	C315.012909,430.998199 315.022400,430.980408 315.014038,430.733429 
	C315.005707,430.486450 314.980438,429.992462 314.985931,429.524292 
	C314.995789,417.734589 315.000153,406.413086 315.449158,395.056458 
	C319.238861,394.830780 322.583984,394.640167 326.397644,394.410278 
	C330.427765,394.265076 333.989349,394.159149 337.699158,394.176147 
	C337.847443,394.299103 338.228455,394.356018 338.555054,394.544525 
	C346.416077,394.695862 353.950500,394.658661 361.833801,394.646973 
	C364.446930,396.181396 366.711243,397.690308 368.975525,399.199249 
	C368.784393,407.893951 368.593262,416.588654 368.118378,425.942444 
	C366.233368,427.759003 364.632111,428.916412 362.562134,430.046387 
	C353.352081,430.102905 344.610657,430.186890 335.432556,430.272095 
	C332.376007,430.271942 329.756134,430.270569 326.750732,430.160156 
	C325.296875,430.076416 324.228546,430.101654 323.160217,430.126862 
z"/>
<path fill="#E14953" opacity="1.000000" stroke="none" 
	d="
M294.534454,486.282349 
	C294.319580,481.997498 294.476593,477.861328 294.844238,472.998016 
	C296.480865,470.555817 297.906860,468.840759 299.772644,467.107788 
	C309.219360,466.954193 318.226288,466.818604 327.665833,466.667786 
	C330.987762,466.662689 333.877075,466.672791 337.243530,466.785217 
	C346.143066,466.906860 354.565521,466.926208 363.312866,467.025909 
	C365.124390,468.374451 366.610992,469.642670 368.097595,470.910889 
	C368.520203,471.526825 368.942780,472.142792 369.587219,472.933411 
	C369.841980,477.414581 369.874878,481.721008 369.884399,486.486267 
	C346.342285,486.963013 322.823608,486.991241 299.304932,486.974548 
	C297.838593,486.973511 296.372498,486.620361 294.534454,486.282349 
z"/>
<path fill="#3F3442" opacity="1.000000" stroke="none" 
	d="
M368.981445,398.744690 
	C366.711243,397.690308 364.446930,396.181396 361.923279,394.525085 
	C361.663940,394.377655 361.634186,394.075256 361.961792,394.150726 
	C364.499969,392.614868 366.710541,391.003510 368.921143,389.392151 
	C368.997314,390.039703 369.073486,390.687225 369.206726,391.656067 
	C369.171631,394.081665 369.079498,396.185883 368.981445,398.744690 
z"/>
<path fill="#3F3442" opacity="1.000000" stroke="none" 
	d="
M368.395874,470.633331 
	C366.610992,469.642670 365.124390,468.374451 363.292542,466.793762 
	C362.947266,466.481293 363.024048,466.020905 363.024048,466.020905 
	C364.808990,464.661377 366.593903,463.301880 368.690826,461.784302 
	C368.899933,464.536072 368.797028,467.445923 368.395874,470.633331 
z"/>
<path fill="#3F3442" opacity="1.000000" stroke="none" 
	d="
M363.030823,430.073853 
	C364.632111,428.916412 366.233368,427.759003 367.994354,426.300293 
	C368.436646,428.748901 368.719238,431.498779 368.999634,434.695465 
	C367.246338,433.787598 365.495270,432.432983 363.375061,430.790436 
	C363.005951,430.502533 363.030853,430.073853 363.030823,430.073853 
z"/>
<path fill="#000000" opacity="1.000000" stroke="none" 
	d="
M369.111816,205.494141 
	C369.122589,230.034393 369.045776,254.114822 369.005005,278.195312 
	C368.973480,296.798492 368.987122,315.401703 368.475800,334.496094 
	C350.969086,335.060516 333.967255,335.133759 316.503113,335.140320 
	C305.714752,335.017120 295.388641,334.960663 285.035736,334.475464 
	C285.612823,329.021332 286.216705,323.995941 286.892822,318.656097 
	C287.019318,317.915497 287.073578,317.489349 287.432251,317.179932 
	C290.561859,320.096924 293.533112,322.767334 296.171143,325.734009 
	C298.803772,328.694641 301.757660,328.741028 304.484833,326.610474 
	C307.054718,324.602753 307.633698,321.440460 305.325348,318.885406 
	C300.374481,313.405457 295.106293,308.212189 289.965851,302.472961 
	C290.996338,294.532990 292.028992,287.021576 293.157166,278.815552 
	C283.772125,278.815552 274.863342,278.815552 265.875183,278.537964 
	C264.942627,277.501801 264.089508,276.743164 263.141388,275.525452 
	C263.046417,246.164185 263.046417,217.261993 263.046417,187.859146 
	C266.394745,187.859146 269.194519,187.859146 272.252380,187.919861 
	C272.687195,187.976578 272.863953,187.972580 273.491486,188.027603 
	C276.986176,188.028564 280.030060,187.970505 283.527008,187.940643 
	C287.325378,187.964371 290.670685,187.959915 294.466980,188.018204 
	C298.267303,188.043152 301.616638,188.005341 305.422852,187.984131 
	C308.898193,187.968155 311.916687,187.935593 315.377563,187.934418 
	C318.876404,187.655502 321.932831,187.345184 325.211975,187.404343 
	C327.252136,187.851593 329.069489,187.993286 330.887115,187.996872 
	C343.529205,188.021683 343.792084,187.754959 344.532410,175.053162 
	C352.968994,175.036957 360.942719,175.059799 368.916443,175.082657 
	C368.957550,185.066559 368.998627,195.050446 369.111816,205.494141 
z"/>
<path fill="#C2C0BF" opacity="1.000000" stroke="none" 
	d="
M369.159546,174.755020 
	C360.942719,175.059799 352.968994,175.036957 344.292206,174.724152 
	C343.749786,170.925415 343.910431,167.416672 344.071075,163.907913 
	C352.044312,163.934280 360.017548,163.960648 368.453918,163.952118 
	C369.078949,167.420624 369.240814,170.923996 369.159546,174.755020 
z"/>
<path fill="#C2C2C2" opacity="1.000000" stroke="none" 
	d="
M169.887146,175.017181 
	C161.590530,175.013535 153.293930,175.009888 144.536560,175.028976 
	C144.053162,171.657562 144.030548,168.263382 144.041855,164.408752 
	C152.371887,163.964783 160.667999,163.981277 169.465897,164.447632 
	C169.940842,168.270721 169.913986,171.643967 169.887146,175.017181 
z"/>
<path fill="#EF8080" opacity="1.000000" stroke="none" 
	d="
M143.993469,460.740784 
	C144.017044,452.838898 144.040619,444.937042 144.332367,436.412018 
	C146.667389,434.152222 148.734222,432.515625 151.265747,430.911804 
	C155.490738,430.635406 159.251038,430.326233 163.006180,430.240295 
	C163.001022,430.463531 162.986679,430.910217 162.979874,431.361267 
	C161.914001,443.360046 167.528000,449.097107 179.100464,448.057648 
	C179.756485,447.998688 180.426254,448.093201 181.076752,448.562073 
	C181.349487,452.680176 181.635117,456.352509 181.612000,460.134705 
	C179.633179,462.179993 177.963120,464.115448 175.799103,466.022858 
	C167.106995,466.057892 158.908829,466.120972 150.385834,466.091736 
	C148.038498,464.246521 146.015991,462.493652 143.993469,460.740784 
z"/>
<path fill="#F3B4A6" opacity="1.000000" stroke="none" 
	d="
M163.011337,430.017090 
	C159.251038,430.326233 155.490738,430.635406 151.128052,430.625061 
	C148.611099,428.545105 146.696548,426.784607 144.781982,425.024109 
	C144.681610,416.952484 144.581253,408.880890 144.562622,400.419067 
	C146.825348,398.243988 149.006317,396.459076 151.557983,394.599670 
	C155.349350,394.609680 158.770004,394.694122 162.623230,394.790283 
	C163.055817,394.802063 163.013565,394.996033 162.997772,395.464783 
	C162.979355,407.284790 162.976761,418.635986 162.980042,429.998413 
	C162.985931,430.009613 163.011337,430.017090 163.011337,430.017090 
z"/>
<path fill="#38313E" opacity="1.000000" stroke="none" 
	d="
M144.004852,461.178864 
	C146.015991,462.493652 148.038498,464.246521 150.398697,466.245117 
	C150.736374,466.490784 150.804443,466.790833 150.465729,466.867126 
	C148.088608,468.773865 146.050232,470.604340 144.011841,472.434784 
	C143.989456,470.549652 143.967056,468.664520 143.901428,466.373901 
	C143.910873,464.517914 143.963562,463.067413 144.004852,461.178864 
z"/>
<path fill="#38313E" opacity="1.000000" stroke="none" 
	d="
M144.543060,425.355072 
	C146.696548,426.784607 148.611099,428.545105 150.663361,430.592316 
	C148.734222,432.515625 146.667389,434.152222 144.300537,435.951294 
	C144.101746,432.637848 144.202942,429.161926 144.543060,425.355072 
z"/>
<path fill="#FBC4AB" opacity="1.000000" stroke="none" 
	d="
M144.026306,472.942505 
	C146.050232,470.604340 148.088608,468.773865 150.943115,466.933899 
	C159.962524,466.787781 168.165833,466.651184 176.796539,466.500305 
	C180.369385,466.495483 183.514847,466.504944 187.043335,466.669250 
	C187.974762,466.818268 188.523132,466.812469 189.534286,466.842133 
	C198.277145,467.201447 206.557220,467.525238 215.140259,468.028442 
	C216.626724,469.902405 217.810257,471.596954 218.993774,473.291534 
	C218.964264,477.545044 218.934738,481.798584 218.850708,486.509094 
	C194.198441,486.974548 169.600677,486.983032 144.539917,486.986237 
	C144.064865,482.470734 144.052826,477.960480 144.026306,472.942505 
z"/>
<path fill="#BC7855" opacity="1.000000" stroke="none" 
	d="
M271.994293,187.859146 
	C269.194519,187.859146 266.394745,187.859146 263.046417,187.859146 
	C263.046417,217.261993 263.046417,246.164185 262.761841,275.459717 
	C258.702667,273.050415 255.219727,272.974213 252.170807,276.955536 
	C252.111542,247.635086 252.052261,218.314651 251.985962,188.294647 
	C251.978912,187.595108 251.968613,187.125137 252.428497,187.094772 
	C255.816559,187.064407 258.744751,187.064407 262.053375,187.064407 
	C262.053375,174.701736 262.053375,163.112503 262.049225,151.486023 
	C262.045074,151.448776 262.020508,151.377991 262.020508,151.377991 
	C265.046448,151.261490 268.072418,151.145004 271.682007,151.259125 
	C272.459991,151.703278 272.693848,151.856552 272.979248,151.959167 
	C272.991241,151.968781 272.963257,151.973312 272.931335,152.442688 
	C272.891876,164.272507 272.884308,175.632965 272.706848,187.112732 
	C272.327820,187.416656 272.146942,187.625687 271.994293,187.859146 
z"/>
<path fill="#BD7955" opacity="1.000000" stroke="none" 
	d="
M169.933502,175.466415 
	C169.913986,171.643967 169.940842,168.270721 169.927429,164.440155 
	C169.924805,162.333542 169.987778,160.684387 169.995590,159.034988 
	C170.024261,152.979187 171.815964,151.066010 177.759628,151.021591 
	C181.051529,150.996994 184.344971,151.175201 187.880432,152.071381 
	C188.065796,164.557388 188.008423,176.233994 187.951065,187.910614 
	C184.338867,187.939651 180.711914,188.188309 177.117889,187.946823 
	C171.565964,187.573807 170.025055,185.764954 170.000107,180.350067 
	C169.993286,178.871918 169.986618,177.393784 169.933502,175.466415 
z"/>
<path fill="#BD7955" opacity="1.000000" stroke="none" 
	d="
M344.042389,163.468399 
	C343.910431,167.416672 343.749786,170.925415 343.829346,174.763199 
	C343.792084,187.754959 343.529205,188.021683 330.887115,187.996872 
	C329.069489,187.993286 327.252136,187.851593 325.514557,187.107910 
	C325.699951,179.714462 325.935486,172.985641 325.868256,166.259842 
	C325.817749,161.208435 325.378143,156.160934 325.111725,151.111694 
	C328.752014,151.075378 332.395905,150.919556 336.031738,151.029648 
	C342.082794,151.212906 343.932037,153.154099 343.998383,159.056091 
	C344.013245,160.380249 344.009094,161.704620 344.042389,163.468399 
z"/>
<path fill="#B77654" opacity="1.000000" stroke="none" 
	d="
M230.926392,187.912384 
	C227.583481,187.944855 224.240555,187.977325 220.418259,187.517944 
	C219.947952,175.036728 219.957031,163.047333 219.966125,151.057953 
	C226.652359,151.123352 233.338608,151.188736 240.492096,151.441742 
	C240.959335,151.629379 241.028549,151.943024 241.014099,151.954758 
	C240.999634,151.966492 241.035645,151.969574 240.582550,151.861786 
	C238.315659,151.724106 236.495453,151.780075 234.689529,151.645096 
	C231.653473,151.418167 230.644150,152.827240 230.687607,155.749802 
	C230.847000,166.469467 230.858948,177.191345 230.926392,187.912384 
z"/>
<path fill="#B77654" opacity="1.000000" stroke="none" 
	d="
M294.015991,187.955444 
	C290.670685,187.959915 287.325378,187.964371 283.557312,187.478607 
	C283.184082,178.410049 283.256653,169.831757 283.277252,161.253342 
	C283.302032,150.923981 283.282928,150.923935 272.963257,151.973312 
	C272.963257,151.973312 272.991241,151.968781 273.015259,151.800934 
	C273.039307,151.633087 273.045776,151.308319 273.045776,151.308319 
	C279.728516,151.206802 286.411255,151.105286 293.577209,151.494705 
	C294.045593,163.975571 294.030792,175.965515 294.015991,187.955444 
z"/>
<path fill="#B77654" opacity="1.000000" stroke="none" 
	d="
M261.553345,151.324615 
	C262.020508,151.377991 262.045074,151.448776 261.587646,151.527374 
	C260.137726,151.624634 259.124817,151.781464 258.156067,151.638702 
	C253.274887,150.919327 251.444489,152.621872 251.700760,157.848740 
	C252.178253,167.588516 251.920395,177.364319 251.968613,187.125137 
	C251.968613,187.125137 251.978912,187.595108 251.977402,187.830139 
	C248.630096,188.038605 245.284317,188.012024 241.477753,187.496185 
	C241.023209,175.327820 241.029434,163.648697 241.035645,151.969574 
	C241.035645,151.969574 240.999634,151.966492 241.203857,151.860458 
	C241.641876,151.589767 241.839157,151.389191 241.999924,151.152679 
	C248.362000,151.192215 254.724075,151.231735 261.553345,151.324615 
z"/>
<path fill="#38313E" opacity="1.000000" stroke="none" 
	d="
M219.518463,150.991699 
	C219.957031,163.047333 219.947952,175.036728 219.961365,187.490753 
	C216.635788,188.001328 213.287704,188.047256 209.563217,187.569717 
	C209.147736,175.042435 209.108673,163.038605 209.069611,151.034760 
	C212.403351,150.998322 215.737076,150.961884 219.518463,150.991699 
z"/>
<path fill="#38313E" opacity="1.000000" stroke="none" 
	d="
M294.466980,188.018204 
	C294.030792,175.965515 294.045593,163.975571 294.047241,151.521820 
	C297.365875,151.007996 300.697662,150.958008 304.412292,151.432800 
	C304.852051,163.960892 304.908997,175.964203 304.965973,187.967529 
	C301.616638,188.005341 298.267303,188.043152 294.466980,188.018204 
z"/>
<path fill="#342F3E" opacity="1.000000" stroke="none" 
	d="
M188.391113,187.944794 
	C188.008423,176.233994 188.065796,164.557388 188.156403,152.410782 
	C191.235291,151.744614 194.280945,151.548431 197.855820,151.617157 
	C198.572906,162.221710 198.798386,172.561020 198.903580,182.901535 
	C198.917557,184.277496 198.321091,185.659637 198.007339,187.038925 
	C194.948624,187.352280 191.889893,187.665634 188.391113,187.944794 
z"/>
<path fill="#342F3E" opacity="1.000000" stroke="none" 
	d="
M324.722076,151.229721 
	C325.378143,156.160934 325.817749,161.208435 325.868256,166.259842 
	C325.935486,172.985641 325.699951,179.714462 325.291870,186.738434 
	C321.932831,187.345184 318.876404,187.655502 315.418945,187.474579 
	C315.070496,175.304581 315.123047,163.625839 315.175629,151.947098 
	C318.227905,151.747314 321.280151,151.547531 324.722076,151.229721 
z"/>
<path fill="#BD7955" opacity="1.000000" stroke="none" 
	d="
M198.219696,187.405579 
	C198.321091,185.659637 198.917557,184.277496 198.903580,182.901535 
	C198.798386,172.561020 198.572906,162.221710 198.246063,151.497131 
	C201.451447,151.077042 204.795822,151.041855 208.604919,151.020721 
	C209.108673,163.038605 209.147736,175.042435 209.110489,187.506882 
	C205.500137,187.902405 201.966095,187.837311 198.219696,187.405579 
z"/>
<path fill="#BD7955" opacity="1.000000" stroke="none" 
	d="
M314.911072,151.607574 
	C315.123047,163.625839 315.070496,175.304581 314.976532,187.443176 
	C311.916687,187.935593 308.898193,187.968155 305.422852,187.984131 
	C304.908997,175.964203 304.852051,163.960892 304.862640,151.496185 
	C308.168945,151.112549 311.407715,151.190292 314.911072,151.607574 
z"/>
<path fill="#9E6950" opacity="1.000000" stroke="none" 
	d="
M272.793884,151.204102 
	C273.045776,151.308319 273.039307,151.633087 273.003265,151.791321 
	C272.693848,151.856552 272.459991,151.703278 272.132904,151.324982 
	C272.180817,151.140106 272.361420,151.119995 272.793884,151.204102 
z"/>
<path fill="#9E6950" opacity="1.000000" stroke="none" 
	d="
M241.728714,151.125504 
	C241.839157,151.389191 241.641876,151.589767 241.218307,151.848724 
	C241.028549,151.943024 240.959335,151.629379 240.956879,151.468842 
	C241.122116,151.238297 241.289810,151.168320 241.728714,151.125504 
z"/>
<path fill="#D6AB82" opacity="1.000000" stroke="none" 
	d="
M285.062561,334.904175 
	C295.388641,334.960663 305.714752,335.017120 316.586487,335.487915 
	C321.804962,342.914062 321.304565,353.077728 315.571472,357.995880 
	C295.334381,357.988586 275.570343,357.949219 255.806595,358.006256 
	C253.890854,358.011780 251.976807,358.614075 249.589691,358.955627 
	C231.717758,358.914154 214.318115,358.856445 196.918457,358.798706 
	C195.612106,354.718353 193.515884,350.689941 193.243195,346.541656 
	C193.014938,343.069458 194.917816,339.457184 195.954544,335.559082 
	C207.358017,335.137146 218.683990,335.063080 230.942780,334.979095 
	C249.604599,334.947510 267.333588,334.925842 285.062561,334.904175 
z"/>
<path fill="#A8A8A8" opacity="1.000000" stroke="none" 
	d="
M285.035736,334.475433 
	C267.333588,334.925842 249.604599,334.947510 231.405807,334.937866 
	C228.051025,316.426605 225.166046,297.946625 222.208954,279.004730 
	C228.183792,279.004730 234.138931,279.004730 240.543396,279.507050 
	C241.980362,287.076843 242.789780,294.174927 243.996552,301.204773 
	C245.901321,312.300568 253.959610,318.914978 265.321259,318.978607 
	C272.487457,319.018738 279.654114,318.976074 286.820587,318.970551 
	C286.216705,323.995941 285.612823,329.021332 285.035736,334.475433 
z"/>
<path fill="#4E5E86" opacity="1.000000" stroke="none" 
	d="
M252.104980,277.287598 
	C255.219727,272.974213 258.702667,273.050415 262.856812,275.918823 
	C264.089508,276.743164 264.942627,277.501801 265.922638,278.889221 
	C274.022339,287.312531 281.995209,295.107025 289.968048,302.901520 
	C295.106293,308.212189 300.374481,313.405457 305.325348,318.885406 
	C307.633698,321.440460 307.054718,324.602753 304.484833,326.610474 
	C301.757660,328.741028 298.803772,328.694641 296.171143,325.734009 
	C293.533112,322.767334 290.561859,320.096924 287.312347,316.856079 
	C283.345184,312.925720 279.802368,309.435944 276.111389,305.637878 
	C270.672699,300.108673 265.382202,294.887756 259.957886,289.371124 
	C257.208557,285.708221 254.593018,282.341003 251.977478,278.973816 
	C251.998032,278.522430 252.018585,278.071075 252.104980,277.287598 
z"/>
<path fill="#C2C2C2" opacity="1.000000" stroke="none" 
	d="
M251.522079,278.985260 
	C254.593018,282.341003 257.208557,285.708221 259.789185,289.701660 
	C255.988113,293.840149 254.604767,297.992188 256.927124,302.783417 
	C259.322998,307.726410 263.841980,308.600281 268.703674,307.978485 
	C271.267029,307.650604 273.743713,306.645477 276.259521,305.946167 
	C279.802368,309.435944 283.345184,312.925720 287.007935,316.739380 
	C287.073578,317.489349 287.019318,317.915497 286.892822,318.656097 
	C279.654114,318.976074 272.487457,319.018738 265.321259,318.978607 
	C253.959610,318.914978 245.901321,312.300568 243.996552,301.204773 
	C242.789780,294.174927 241.980362,287.076843 241.008713,279.576782 
	C244.372025,279.095032 247.719360,279.045868 251.522079,278.985260 
z"/>
<path fill="#342F3E" opacity="1.000000" stroke="none" 
	d="
M240.582550,151.861786 
	C241.029434,163.648697 241.023209,175.327820 241.022400,187.470856 
	C237.963486,187.978561 234.899139,188.022354 231.380600,187.989258 
	C230.858948,177.191345 230.847000,166.469467 230.687607,155.749802 
	C230.644150,152.827240 231.653473,151.418167 234.689529,151.645096 
	C236.495453,151.780075 238.315659,151.724106 240.582550,151.861786 
z"/>
<path fill="#EFB1AC" opacity="1.000000" stroke="none" 
	d="
M196.457855,358.828461 
	C214.318115,358.856445 231.717758,358.914154 249.933105,359.035156 
	C254.506943,359.471100 256.168793,361.903534 256.880890,365.630554 
	C256.921356,366.620819 256.926788,367.284149 256.754242,368.078857 
	C256.346375,368.398529 256.154663,368.619904 255.532654,368.884644 
	C230.753403,368.880493 206.442719,368.866028 182.132019,368.851593 
	C182.068222,367.809784 182.004425,366.768005 181.976593,364.991486 
	C183.849182,362.395782 185.685822,360.534821 187.522461,358.673828 
	C190.347382,358.735260 193.172318,358.796722 196.457855,358.828461 
z"/>
<path fill="#3F3442" opacity="1.000000" stroke="none" 
	d="
M187.168961,358.583496 
	C185.685822,360.534821 183.849182,362.395782 181.947693,364.600830 
	C179.779236,362.822052 177.675629,360.699188 175.354340,358.491333 
	C179.029587,358.435242 182.922531,358.464203 187.168961,358.583496 
z"/>
<path fill="#F08080" opacity="1.000000" stroke="none" 
	d="
M181.985992,369.067627 
	C206.442719,368.866028 230.753403,368.880493 255.643097,369.093506 
	C256.402832,369.554657 256.635071,369.758514 256.938599,370.369202 
	C256.964203,374.540588 256.970062,378.246460 256.510315,381.976440 
	C231.029526,381.997467 206.014359,381.994354 180.982880,382.004791 
	C180.966568,382.018372 180.934662,382.046936 180.934662,382.046936 
	C180.967941,378.337524 181.001221,374.628143 181.063263,370.457031 
	C181.341339,369.758118 181.590652,369.520874 181.985992,369.067627 
z"/>
<path fill="#C83653" opacity="1.000000" stroke="none" 
	d="
M163.084503,394.707031 
	C163.193436,387.711670 167.748016,382.919861 175.115356,382.102448 
	C176.748566,381.921265 178.415390,382.043335 180.500702,382.036377 
	C180.934662,382.046936 180.966568,382.018372 181.118362,382.363770 
	C181.488800,384.484009 181.707443,386.258881 181.637756,388.184540 
	C179.832413,390.201630 178.315414,392.067963 176.391815,393.992554 
	C171.661346,394.365875 167.337448,394.680969 163.013565,394.996033 
	C163.013565,394.996033 163.055817,394.802063 163.084503,394.707031 
z"/>
<path fill="#E14A54" opacity="1.000000" stroke="none" 
	d="
M181.920746,460.024841 
	C181.635117,456.352509 181.349487,452.680176 181.067261,448.552795 
	C181.070679,448.097778 181.092392,448.092743 181.552277,448.089752 
	C206.979614,448.087952 231.947052,448.089111 256.927063,448.093567 
	C256.939606,448.096863 256.908417,448.116150 256.908417,448.116150 
	C256.959015,451.681396 257.009644,455.246674 256.829834,459.522766 
	C254.996445,462.124207 253.393448,464.014771 251.341934,465.916809 
	C241.875916,466.031677 232.858398,466.135040 223.407471,466.255005 
	C220.373093,466.261383 217.772141,466.251160 214.697388,466.153107 
	C205.814575,466.074188 197.405594,466.083130 188.627335,466.053589 
	C187.763412,465.977264 187.268768,465.939362 186.570541,465.663391 
	C184.884903,463.625153 183.402817,461.825012 181.920746,460.024841 
z"/>
<path fill="#F09999" opacity="1.000000" stroke="none" 
	d="
M315.007507,430.988434 
	C314.958374,433.140839 315.132355,435.334045 314.829712,437.459351 
	C313.947540,443.655121 308.800293,447.964172 302.309143,447.989227 
	C287.493347,448.046478 272.677246,448.034241 257.384827,448.083191 
	C256.908417,448.116150 256.939606,448.096863 256.951721,447.629395 
	C257.371613,442.438629 257.779327,437.715302 258.402283,432.741455 
	C260.344299,431.970520 262.071075,431.450165 264.278870,430.947113 
	C268.854828,430.976288 272.956268,431.136505 277.042877,430.957825 
	C281.053070,430.782501 285.048218,430.262695 289.500793,429.944061 
	C292.999756,430.001434 296.047943,430.008728 299.325134,430.029419 
	C299.554199,430.042755 300.012299,430.069763 300.350586,430.298462 
	C305.466736,430.678223 310.244568,430.829315 315.022400,430.980408 
	C315.022400,430.980408 315.012909,430.998199 315.007507,430.988434 
z"/>
<path fill="#3F3442" opacity="1.000000" stroke="none" 
	d="
M336.766388,466.682892 
	C333.877075,466.672791 330.987762,466.662689 327.554199,466.433441 
	C326.903076,466.077057 326.796204,465.939850 326.689331,465.802612 
	C328.932953,464.445740 331.176605,463.088837 333.420227,461.731934 
	C332.561310,461.586029 331.702423,461.440125 330.843506,461.294220 
	C332.853546,462.632629 334.863556,463.971008 336.944733,465.756104 
	C336.932739,466.362823 336.849548,466.522858 336.766388,466.682892 
z"/>
<path fill="#3F3442" opacity="1.000000" stroke="none" 
	d="
M251.790451,465.905334 
	C253.393448,464.014771 254.996445,462.124207 256.819458,459.962219 
	C258.606720,460.943024 257.972931,464.834564 261.773743,464.089417 
	C261.816254,465.277649 261.745422,465.920959 261.674591,466.564240 
	C258.793121,466.565094 255.911636,466.565979 252.571106,466.376373 
	C252.112076,466.185913 251.790451,465.905334 251.790451,465.905334 
z"/>
<path fill="#3F3442" opacity="1.000000" stroke="none" 
	d="
M327.136261,430.269165 
	C329.756134,430.270569 332.376007,430.271942 335.489929,430.564606 
	C336.017548,431.248657 336.051117,431.641388 336.084717,432.034180 
	C334.765442,433.428589 333.446136,434.822998 332.726898,435.583160 
	C331.198792,434.472107 329.533905,433.261597 327.536133,431.678406 
	C327.180939,430.960266 327.158600,430.614716 327.136261,430.269165 
z"/>
<path fill="#3F3442" opacity="1.000000" stroke="none" 
	d="
M215.171204,466.240906 
	C217.772141,466.251160 220.373093,466.261383 223.483566,466.494873 
	C224.071808,466.867065 224.150513,467.016052 224.229218,467.165009 
	C222.653610,469.051605 221.078018,470.938171 219.248108,473.058167 
	C217.810257,471.596954 216.626724,469.902405 215.188019,467.759216 
	C215.012283,466.954071 215.091736,466.597473 215.171204,466.240906 
z"/>
<path fill="#3F3442" opacity="1.000000" stroke="none" 
	d="
M299.332825,467.125732 
	C297.906860,468.840759 296.480865,470.555817 294.974487,472.603271 
	C293.231750,471.195618 291.569427,469.455566 289.894440,467.275757 
	C289.994385,466.668060 290.106995,466.500092 290.219635,466.332092 
	C292.784393,466.333832 295.349152,466.335541 298.450836,466.554810 
	C298.987762,466.772339 299.332825,467.125702 299.332825,467.125732 
z"/>
<path fill="#A9565D" opacity="1.000000" stroke="none" 
	d="
M224.681274,467.151550 
	C224.150513,467.016052 224.071808,466.867065 223.916992,466.478271 
	C232.858398,466.135040 241.875916,466.031677 251.341934,465.916809 
	C251.790451,465.905334 252.112076,466.185913 252.204880,466.377411 
	C243.242905,466.758636 234.188126,466.948364 224.681274,467.151550 
z"/>
<path fill="#A9565D" opacity="1.000000" stroke="none" 
	d="
M299.772644,467.107758 
	C299.332825,467.125702 298.987762,466.772339 298.878052,466.551575 
	C307.779022,466.170807 316.789703,466.010803 326.244812,465.826721 
	C326.796204,465.939850 326.903076,466.077057 327.121582,466.448639 
	C318.226288,466.818604 309.219360,466.954193 299.772644,467.107758 
z"/>
<path fill="#AF626D" opacity="1.000000" stroke="none" 
	d="
M336.473999,431.898346 
	C336.051117,431.641388 336.017548,431.248657 335.926636,430.563416 
	C344.610657,430.186890 353.352081,430.102905 362.562164,430.046387 
	C363.030853,430.073853 363.005951,430.502533 363.047760,430.713074 
	C354.347473,431.203247 345.605377,431.482910 336.473999,431.898346 
z"/>
<path fill="#A9565D" opacity="1.000000" stroke="none" 
	d="
M337.243530,466.785217 
	C336.849548,466.522858 336.932739,466.362823 337.189819,465.994995 
	C345.603851,465.849976 353.843994,465.912781 362.554077,465.998260 
	C363.024048,466.020905 362.947266,466.481293 362.967590,466.713440 
	C354.565521,466.926208 346.143066,466.906860 337.243530,466.785217 
z"/>
<path fill="#A9565D" opacity="1.000000" stroke="none" 
	d="
M261.984009,466.688141 
	C261.745422,465.920959 261.816254,465.277649 261.958435,464.318054 
	C262.748688,464.693726 263.467560,465.385712 264.186432,466.077728 
	C263.555420,466.322510 262.924438,466.567291 261.984009,466.688141 
z"/>
<path fill="#AF626D" opacity="1.000000" stroke="none" 
	d="
M326.750732,430.160187 
	C327.158600,430.614716 327.180939,430.960266 327.219727,431.564758 
	C326.022949,431.407257 324.809753,430.990784 323.378387,430.350586 
	C324.228546,430.101654 325.296875,430.076416 326.750732,430.160187 
z"/>
<path fill="#A9565D" opacity="1.000000" stroke="none" 
	d="
M289.916931,466.223083 
	C290.106995,466.500092 289.994385,466.668060 289.650818,467.033997 
	C288.693451,467.068665 287.967041,466.905426 287.240662,466.742188 
	C287.269104,466.532806 287.297577,466.323456 287.326019,466.114075 
	C288.088745,466.114075 288.851501,466.114075 289.916931,466.223083 
z"/>
<path fill="#BC966E" opacity="1.000000" stroke="none" 
	d="
M316.044647,357.990662 
	C321.304565,353.077728 321.804962,342.914062 317.048767,335.554626 
	C333.967255,335.133759 350.969086,335.060516 368.432800,334.958557 
	C369.060547,334.936401 369.226318,334.945923 369.392212,334.949066 
	C381.885620,335.184021 385.826752,339.948547 382.655090,352.127838 
	C382.042419,354.480499 378.687225,356.525238 376.144165,357.827301 
	C374.425720,358.707153 371.913300,358.036255 368.848755,358.054199 
	C355.372345,358.044922 342.802979,358.005493 330.234222,358.076019 
	C328.476318,358.085876 326.721466,358.635773 324.526184,358.938293 
	C321.742218,358.900482 319.397247,358.860107 316.907288,358.654968 
	C316.547577,358.288422 316.308380,358.121918 316.044647,357.990662 
z"/>
<path fill="#E04A54" opacity="1.000000" stroke="none" 
	d="
M368.954742,389.044678 
	C366.710541,391.003510 364.499969,392.614868 361.440552,394.143250 
	C353.137299,394.158875 345.682892,394.257446 338.228455,394.356018 
	C338.228455,394.356018 337.847443,394.299103 337.453918,393.907471 
	C335.362762,391.557617 333.665131,389.599396 331.962708,387.195374 
	C331.974731,380.834534 331.991516,374.919495 332.475830,368.976807 
	C345.241241,368.929596 357.539154,368.910034 369.837097,368.890472 
	C369.871277,374.588531 369.905487,380.286621 369.765350,386.598541 
	C369.361908,387.439758 369.188171,387.703583 369.069763,388.003815 
	C369.042664,388.234955 369.015533,388.466095 368.954742,389.044678 
z"/>
<path fill="#E2807D" opacity="1.000000" stroke="none" 
	d="
M369.864655,368.513397 
	C357.539154,368.910034 345.241241,368.929596 332.464539,368.901154 
	C331.985748,368.853149 331.944458,368.705841 331.936218,368.361694 
	C330.905334,365.442871 329.882721,362.868225 329.232361,360.290405 
	C331.882263,360.100555 334.160370,359.749207 336.437408,359.755829 
	C346.171295,359.784119 355.904846,359.918091 365.638519,360.013489 
	C367.056427,362.721100 368.474335,365.428711 369.864655,368.513397 
z"/>
<path fill="#C78E77" opacity="1.000000" stroke="none" 
	d="
M365.992432,359.960632 
	C355.904846,359.918091 346.171295,359.784119 336.437408,359.755829 
	C334.160370,359.749207 331.882263,360.100555 328.907227,360.181641 
	C327.128296,359.695953 326.046722,359.315826 324.965179,358.935699 
	C326.721466,358.635773 328.476318,358.085876 330.234222,358.076019 
	C342.802979,358.005493 355.372345,358.044922 368.389404,358.064941 
	C368.006989,358.689575 367.176666,359.298676 365.992432,359.960632 
z"/>
<path fill="#B36555" opacity="1.000000" stroke="none" 
	d="
M369.255310,387.854370 
	C369.188171,387.703583 369.361908,387.439758 369.776184,387.060883 
	C369.844574,387.211700 369.671082,387.476868 369.255310,387.854370 
z"/>
<path fill="#EE626C" opacity="1.000000" stroke="none" 
	d="
M331.997040,368.928802 
	C331.991516,374.919495 331.974731,380.834534 331.740387,387.477905 
	C329.658264,390.287354 327.793671,392.368469 325.929077,394.449585 
	C322.583984,394.640167 319.238861,394.830780 315.439392,394.948547 
	C314.984985,394.875671 314.955353,394.661987 314.959625,394.305115 
	C313.489807,385.940887 309.143677,382.105957 300.920135,382.056580 
	C286.290833,381.968750 271.660370,382.074829 257.015259,382.063507 
	C257.000122,382.027191 256.975922,381.952301 256.975922,381.952301 
	C256.970062,378.246460 256.964203,374.540588 256.963745,370.140381 
	C256.969116,369.446045 257.001617,368.985046 257.470093,368.973816 
	C282.607178,368.876984 307.275818,368.791412 331.944458,368.705841 
	C331.944458,368.705841 331.985748,368.853149 331.997040,368.928802 
z"/>
<path fill="#FA888D" opacity="1.000000" stroke="none" 
	d="
M300.012299,430.069763 
	C300.012299,430.069763 299.554199,430.042755 299.203186,429.713409 
	C297.556305,427.618256 296.260498,425.852478 294.974487,423.612732 
	C294.961273,415.688843 294.938232,408.238922 294.939819,400.454041 
	C296.331543,398.401306 297.698669,396.683563 299.528259,394.983826 
	C304.978943,394.888550 309.967133,394.775269 314.955353,394.661987 
	C314.955353,394.661987 314.984985,394.875671 314.994751,394.983612 
	C315.000153,406.413086 314.995789,417.734589 314.521973,429.527161 
	C309.372437,430.022064 304.692352,430.045929 300.012299,430.069763 
z"/>
<path fill="#3F3442" opacity="1.000000" stroke="none" 
	d="
M326.397644,394.410309 
	C327.793671,392.368469 329.658264,390.287354 331.745178,387.923706 
	C333.665131,389.599396 335.362762,391.557617 337.305664,393.784546 
	C333.989349,394.159149 330.427765,394.265076 326.397644,394.410309 
z"/>
<path fill="#EE626C" opacity="1.000000" stroke="none" 
	d="
M338.555054,394.544525 
	C345.682892,394.257446 353.137299,394.158875 361.112976,394.067749 
	C361.634186,394.075256 361.663940,394.377655 361.574463,394.499573 
	C353.950500,394.658661 346.416077,394.695862 338.555054,394.544525 
z"/>
<path fill="#EF8F94" opacity="1.000000" stroke="none" 
	d="
M300.350586,430.298462 
	C304.692352,430.045929 309.372437,430.022064 314.516479,429.995361 
	C314.980438,429.992462 315.005707,430.486450 315.014038,430.733429 
	C310.244568,430.829315 305.466736,430.678223 300.350586,430.298462 
z"/>
<path fill="#342F3E" opacity="1.000000" stroke="none" 
	d="
M272.931335,152.442688 
	C283.282928,150.923935 283.302032,150.923981 283.277252,161.253342 
	C283.256653,169.831757 283.184082,178.410049 283.104248,187.450409 
	C280.030060,187.970505 276.986176,188.028564 273.511566,187.773651 
	C273.012817,187.304916 272.944763,187.149155 272.876770,186.993408 
	C272.884308,175.632965 272.891876,164.272507 272.931335,152.442688 
z"/>
<path fill="#C2C2C2" opacity="1.000000" stroke="none" 
	d="
M289.965851,302.472961 
	C281.995209,295.107025 274.022339,287.312531 266.002014,279.166809 
	C274.863342,278.815552 283.772125,278.815552 293.157166,278.815552 
	C292.028992,287.021576 290.996338,294.532990 289.965851,302.472961 
z"/>
<path fill="#9E6950" opacity="1.000000" stroke="none" 
	d="
M272.706848,187.112732 
	C272.944763,187.149155 273.012817,187.304916 273.060760,187.714630 
	C272.863953,187.972580 272.687195,187.976578 272.252380,187.919861 
	C272.146942,187.625687 272.327820,187.416656 272.706848,187.112732 
z"/>
<path fill="#FBA697" opacity="1.000000" stroke="none" 
	d="
M181.080154,448.107025 
	C180.426254,448.093201 179.756485,447.998688 179.100464,448.057648 
	C167.528000,449.097107 161.914001,443.360046 163.447464,431.381683 
	C168.045898,430.963867 172.169922,430.976654 176.358978,430.995605 
	C176.423996,431.001709 176.546280,430.955872 176.753693,431.244080 
	C178.409592,433.485413 179.858093,435.438538 181.222229,437.879181 
	C181.122711,441.608704 181.107544,444.850739 181.092392,448.092743 
	C181.092392,448.092743 181.070679,448.097778 181.080154,448.107025 
z"/>
<path fill="#38313E" opacity="1.000000" stroke="none" 
	d="
M181.612000,460.134705 
	C183.402817,461.825012 184.884903,463.625153 186.469238,465.803101 
	C186.571518,466.180878 186.660294,466.514404 186.660294,466.514404 
	C183.514847,466.504944 180.369385,466.495483 176.865753,466.369873 
	C176.507584,466.253754 176.293045,466.050903 176.293045,466.050903 
	C177.963120,464.115448 179.633179,462.179993 181.612000,460.134705 
z"/>
<path fill="#B27D78" opacity="1.000000" stroke="none" 
	d="
M175.799103,466.022858 
	C176.293045,466.050903 176.507584,466.253754 176.438354,466.384155 
	C168.165833,466.651184 159.962524,466.787781 151.281830,466.857605 
	C150.804443,466.790833 150.736374,466.490784 150.723511,466.337402 
	C158.908829,466.120972 167.106995,466.057892 175.799103,466.022858 
z"/>
<path fill="#E08089" opacity="1.000000" stroke="none" 
	d="
M176.293961,430.989471 
	C172.169922,430.976654 168.045898,430.963867 163.454269,430.930634 
	C162.986679,430.910217 163.001022,430.463531 163.006180,430.240295 
	C163.011337,430.017090 162.985931,430.009613 163.443695,430.006104 
	C168.032288,430.331573 172.163132,430.660522 176.293961,430.989471 
z"/>
<path fill="#FA888D" opacity="1.000000" stroke="none" 
	d="
M176.358978,430.995605 
	C172.163132,430.660522 168.032288,430.331573 163.437805,429.994934 
	C162.976761,418.635986 162.979355,407.284790 162.997772,395.464783 
	C167.337448,394.680969 171.661346,394.365875 176.863586,394.055908 
	C180.560913,394.019012 183.379868,393.976990 186.616974,393.970337 
	C195.908737,394.239166 204.782379,394.472595 213.951523,394.798401 
	C215.920639,397.032928 217.594254,399.175110 219.207626,401.825562 
	C219.095657,409.463562 219.043930,416.593292 218.754501,423.974182 
	C217.343155,425.818573 216.169510,427.411804 214.675201,429.089050 
	C213.340378,429.498444 212.326233,429.823792 210.825226,430.110657 
	C202.247849,430.250122 194.157364,430.428009 185.600189,430.654480 
	C182.271118,430.787323 179.408691,430.871613 176.546280,430.955872 
	C176.546280,430.955872 176.423996,431.001709 176.358978,430.995605 
z"/>
<path fill="#A9565D" opacity="1.000000" stroke="none" 
	d="
M214.697388,466.153076 
	C215.091736,466.597473 215.012283,466.954071 214.885071,467.579834 
	C206.557220,467.525238 198.277145,467.201447 189.515594,466.663574 
	C189.034134,466.449524 188.996597,466.092041 188.996597,466.092041 
	C197.405594,466.083130 205.814575,466.074188 214.697388,466.153076 
z"/>
<path fill="#B27D78" opacity="1.000000" stroke="none" 
	d="
M188.627335,466.053589 
	C188.996597,466.092041 189.034134,466.449524 189.052826,466.628082 
	C188.523132,466.812469 187.974762,466.818268 187.043335,466.669250 
	C186.660294,466.514404 186.571518,466.180878 186.672821,466.041168 
	C187.268768,465.939362 187.763412,465.977264 188.627335,466.053589 
z"/>
<path fill="#322E3D" opacity="1.000000" stroke="none" 
	d="
M252.428497,187.094772 
	C251.920395,177.364319 252.178253,167.588516 251.700760,157.848740 
	C251.444489,152.621872 253.274887,150.919327 258.156067,151.638702 
	C259.124817,151.781464 260.137726,151.624634 261.591797,151.564606 
	C262.053375,163.112503 262.053375,174.701736 262.053375,187.064407 
	C258.744751,187.064407 255.816559,187.064407 252.428497,187.094772 
z"/>
<path fill="#C78E77" opacity="1.000000" stroke="none" 
	d="
M315.571472,357.995880 
	C316.308380,358.121918 316.547577,358.288422 316.434998,358.704285 
	C300.353699,358.935944 284.599030,359.036407 268.845856,358.924713 
	C263.555420,358.887238 258.710724,359.147034 256.845856,365.303589 
	C256.168793,361.903534 254.506943,359.471100 250.405396,359.018921 
	C251.976807,358.614075 253.890854,358.011780 255.806595,358.006256 
	C275.570343,357.949219 295.334381,357.988586 315.571472,357.995880 
z"/>
<path fill="#E6E6E6" opacity="1.000000" stroke="none" 
	d="
M276.111389,305.637878 
	C273.743713,306.645477 271.267029,307.650604 268.703674,307.978485 
	C263.841980,308.600281 259.322998,307.726410 256.927124,302.783417 
	C254.604767,297.992188 255.988113,293.840149 259.922974,289.997375 
	C265.382202,294.887756 270.672699,300.108673 276.111389,305.637878 
z"/>
<path fill="#EF8E8A" opacity="1.000000" stroke="none" 
	d="
M256.880890,365.630554 
	C258.710724,359.147034 263.555420,358.887238 268.845856,358.924713 
	C284.599030,359.036407 300.353699,358.935944 316.580048,358.869019 
	C319.397247,358.860107 321.742218,358.900482 324.526184,358.938293 
	C326.046722,359.315826 327.128296,359.695953 328.534973,360.184814 
	C329.882721,362.868225 330.905334,365.442871 331.936218,368.361694 
	C307.275818,368.791412 282.607178,368.876984 257.453644,368.714417 
	C256.956543,368.293365 256.944366,368.120392 256.932190,367.947449 
	C256.926788,367.284149 256.921356,366.620819 256.880890,365.630554 
z"/>
<path fill="#F09999" opacity="1.000000" stroke="none" 
	d="
M256.754272,368.078857 
	C256.944366,368.120392 256.956543,368.293365 256.985168,368.725677 
	C257.001617,368.985046 256.969116,369.446045 256.943970,369.674866 
	C256.635071,369.758514 256.402832,369.554657 256.111633,369.083221 
	C256.154663,368.619904 256.346375,368.398529 256.754272,368.078857 
z"/>
<path fill="#EE5E5A" opacity="1.000000" stroke="none" 
	d="
M213.656006,394.706024 
	C204.782379,394.472595 195.908737,394.239166 186.450745,393.677673 
	C184.552963,391.577667 183.239517,389.805695 181.926086,388.033752 
	C181.707443,386.258881 181.488800,384.484009 181.134674,382.350159 
	C206.014359,381.994354 231.029526,381.997467 256.510315,381.976440 
	C256.975922,381.952301 257.000122,382.027191 257.006409,382.457947 
	C257.005035,384.741882 256.997375,386.595032 256.701263,388.661682 
	C254.908371,390.588287 253.403946,392.301453 251.602722,394.007080 
	C250.586868,394.241760 249.867798,394.484009 248.673737,394.780243 
	C240.213409,394.878571 232.228119,394.922882 223.849701,394.870178 
	C220.189713,394.750763 216.922867,394.728394 213.656006,394.706024 
z"/>
<path fill="#38313E" opacity="1.000000" stroke="none" 
	d="
M181.637756,388.184540 
	C183.239517,389.805695 184.552963,391.577667 186.032608,393.642273 
	C183.379868,393.976990 180.560913,394.019012 177.270172,393.997681 
	C178.315414,392.067963 179.832413,390.201630 181.637756,388.184540 
z"/>
<path fill="#E08089" opacity="1.000000" stroke="none" 
	d="
M186.066864,430.605957 
	C194.157364,430.428009 202.247849,430.250122 211.135880,430.320862 
	C223.396957,430.683105 234.865204,430.650696 246.320465,431.020966 
	C248.928711,431.105255 251.453613,432.753479 254.092438,433.344788 
	C255.366959,433.630371 256.816681,433.134216 258.187073,432.992004 
	C257.779327,437.715302 257.371613,442.438629 256.939178,447.626099 
	C231.947052,448.089111 206.979614,448.087952 181.552277,448.089752 
	C181.107544,444.850739 181.122711,441.608704 181.409393,437.658081 
	C183.142914,434.834961 184.604889,432.720459 186.066864,430.605957 
z"/>
<path fill="#EF8F94" opacity="1.000000" stroke="none" 
	d="
M224.242813,394.967194 
	C232.228119,394.922882 240.213409,394.878571 249.055176,394.828552 
	C250.654648,394.673828 251.397659,394.524811 252.577698,394.378693 
	C255.942581,394.392517 258.870422,394.403473 262.261749,394.550232 
	C271.627930,394.787079 280.530609,394.888153 289.642151,395.277039 
	C291.539032,397.306213 293.227112,399.047607 294.915192,400.789001 
	C294.938232,408.238922 294.961273,415.688843 294.655212,423.693787 
	C292.567413,426.130524 290.808685,428.012268 289.049957,429.894012 
	C285.048218,430.262695 281.053070,430.782501 277.042877,430.957825 
	C272.956268,431.136505 268.854828,430.976288 263.984650,430.677979 
	C261.416992,430.221771 259.624725,429.907501 257.832153,429.905884 
	C246.587387,429.895782 235.342560,429.955353 223.984787,429.671326 
	C222.245285,427.474884 220.618729,425.598969 218.992188,423.723022 
	C219.043930,416.593292 219.095657,409.463562 219.366547,401.593201 
	C221.138092,398.890808 222.690445,396.928986 224.242813,394.967194 
M248.186127,403.058990 
	C244.022278,403.094849 239.840744,402.905212 235.699539,403.229919 
	C231.552551,403.555115 228.439819,405.743683 227.280579,409.928192 
	C226.249680,413.649445 227.433853,416.891510 230.301971,419.377747 
	C233.157547,421.853058 253.050598,421.886230 256.022034,419.481110 
	C259.091797,416.996490 260.900452,413.827423 259.628876,409.831848 
	C258.029755,404.807190 253.952911,403.225159 248.186127,403.058990 
z"/>
<path fill="#AF626D" opacity="1.000000" stroke="none" 
	d="
M224.097748,429.991882 
	C235.342560,429.955353 246.587387,429.895782 257.832153,429.905884 
	C259.624725,429.907501 261.416992,430.221771 263.503601,430.660645 
	C262.071075,431.450165 260.344299,431.970520 258.402313,432.741455 
	C256.816681,433.134216 255.366959,433.630371 254.092438,433.344788 
	C251.453613,432.753479 248.928711,431.105255 246.320465,431.020966 
	C234.865204,430.650696 223.396957,430.683105 211.622757,430.359314 
	C212.326233,429.823792 213.340378,429.498444 214.930771,429.411804 
	C218.370605,429.764282 221.234177,429.878082 224.097748,429.991882 
z"/>
<path fill="#3F3442" opacity="1.000000" stroke="none" 
	d="
M289.500793,429.944061 
	C290.808685,428.012268 292.567413,426.130524 294.645416,424.167725 
	C296.260498,425.852478 297.556305,427.618256 298.974121,429.700073 
	C296.047943,430.008728 292.999756,430.001434 289.500793,429.944061 
z"/>
<path fill="#D94B59" opacity="1.000000" stroke="none" 
	d="
M289.433319,394.989227 
	C280.530609,394.888153 271.627930,394.787079 262.158875,394.277039 
	C260.058289,392.061432 258.523987,390.254791 256.989716,388.448181 
	C256.997375,386.595032 257.005035,384.741882 257.021545,382.494263 
	C271.660370,382.074829 286.290833,381.968750 300.920135,382.056580 
	C309.143677,382.105957 313.489807,385.940887 314.959625,394.305115 
	C309.967133,394.775269 304.978943,394.888550 299.056274,394.945740 
	C295.225677,394.922882 292.329498,394.956055 289.433319,394.989227 
z"/>
<path fill="#3F3442" opacity="1.000000" stroke="none" 
	d="
M289.642151,395.277039 
	C292.329498,394.956055 295.225677,394.922882 298.593811,394.927734 
	C297.698669,396.683563 296.331543,398.401306 294.939819,400.454041 
	C293.227112,399.047607 291.539032,397.306213 289.642151,395.277039 
z"/>
<path fill="#3F3442" opacity="1.000000" stroke="none" 
	d="
M185.600204,430.654480 
	C184.604889,432.720459 183.142914,434.834961 181.493759,437.170563 
	C179.858093,435.438538 178.409592,433.485413 176.753693,431.244080 
	C179.408691,430.871613 182.271118,430.787323 185.600204,430.654480 
z"/>
<path fill="#3F3442" opacity="1.000000" stroke="none" 
	d="
M223.849701,394.870178 
	C222.690445,396.928986 221.138092,398.890808 219.426788,401.084961 
	C217.594254,399.175110 215.920639,397.032928 213.951523,394.798401 
	C216.922867,394.728394 220.189713,394.750763 223.849701,394.870178 
z"/>
<path fill="#3F3442" opacity="1.000000" stroke="none" 
	d="
M223.984787,429.671356 
	C221.234177,429.878082 218.370605,429.764282 215.251465,429.327759 
	C216.169510,427.411804 217.343155,425.818573 218.754486,423.974182 
	C220.618729,425.598969 222.245285,427.474884 223.984787,429.671356 
z"/>
<path fill="#38313E" opacity="1.000000" stroke="none" 
	d="
M256.701263,388.661682 
	C258.523987,390.254791 260.058289,392.061432 261.695435,394.141235 
	C258.870422,394.403473 255.942581,394.392517 252.569351,394.255402 
	C252.123978,394.129211 251.899521,394.014618 251.899521,394.014618 
	C253.403946,392.301453 254.908371,390.588287 256.701263,388.661682 
z"/>
<path fill="#D94B59" opacity="1.000000" stroke="none" 
	d="
M251.602722,394.007080 
	C251.899521,394.014618 252.123978,394.129211 252.132324,394.252502 
	C251.397659,394.524811 250.654648,394.673828 249.530197,394.774536 
	C249.867798,394.484009 250.586868,394.241760 251.602722,394.007080 
z"/>
<path fill="#F8C5BF" opacity="1.000000" stroke="none" 
	d="
M248.638901,403.060913 
	C253.952911,403.225159 258.029755,404.807190 259.628876,409.831848 
	C260.900452,413.827423 259.091797,416.996490 256.022034,419.481110 
	C253.050598,421.886230 233.157547,421.853058 230.301971,419.377747 
	C227.433853,416.891510 226.249680,413.649445 227.280579,409.928192 
	C228.439819,405.743683 231.552551,403.555115 235.699539,403.229919 
	C239.840744,402.905212 244.022278,403.094849 248.638901,403.060913 
z"/>
</svg>