<?xml version="1.0" standalone="no"?>
<!DOCTYPE svg PUBLIC "-//W3C//DTD SVG 20010904//EN"
 "http://www.w3.org/TR/2001/REC-SVG-20010904/DTD/svg10.dtd">
<svg version="1.0" xmlns="http://www.w3.org/2000/svg"
 width="512.000000pt" height="512.000000pt" viewBox="0 0 512.000000 512.000000"
 preserveAspectRatio="xMidYMid meet">
<metadata>
Created by potrace 1.16, written by Peter Selinger 2001-2019
</metadata>
<g transform="translate(0.000000,512.000000) scale(0.100000,-0.100000)"
fill="#000000" stroke="none">
<path d="M1534 5050 c-118 -31 -213 -85 -302 -172 -55 -54 -535 -764 -555
-821 -14 -41 -2 -105 25 -134 53 -57 -71 -53 1858 -53 1746 0 1782 0 1819 20
49 25 75 76 68 137 -4 37 -45 104 -258 424 -287 431 -326 477 -471 548 -147
73 -111 71 -1168 70 -890 0 -949 -1 -1016 -19z"/>
<path d="M1870 3435 l0 -185 55 0 55 0 0 185 0 185 -55 0 -55 0 0 -185z"/>
<path d="M2080 3435 l0 -185 55 0 55 0 0 185 0 185 -55 0 -55 0 0 -185z"/>
<path d="M2290 3435 l0 -185 60 0 60 0 0 185 0 185 -60 0 -60 0 0 -185z"/>
<path d="M2500 3435 l0 -186 58 3 57 3 3 183 2 182 -60 0 -60 0 0 -185z"/>
<path d="M2710 3435 l0 -185 60 0 60 0 0 185 0 185 -60 0 -60 0 0 -185z"/>
<path d="M2930 3435 l0 -185 55 0 55 0 0 185 0 185 -55 0 -55 0 0 -185z"/>
<path d="M3140 3435 l0 -185 55 0 55 0 0 185 0 185 -55 0 -55 0 0 -185z"/>
<path d="M3890 2140 l0 -930 -100 0 -100 0 0 118 0 117 -190 -3 -190 -3 0 -72
c0 -95 -14 -143 -47 -160 -23 -13 -16 -14 82 -20 60 -4 150 -7 201 -7 91 0 93
0 118 -31 25 -29 26 -37 26 -144 0 -111 -1 -113 -29 -144 -16 -17 -37 -31 -48
-31 -12 -1 -8 -5 12 -14 54 -24 65 -52 65 -175 0 -106 -1 -110 -29 -140 l-29
-31 -130 0 c-116 0 -132 2 -156 21 -14 11 -26 27 -26 35 0 8 -4 14 -10 14 -5
0 -10 -6 -10 -14 0 -8 -12 -24 -26 -35 -26 -20 -38 -21 -340 -21 l-313 0 -27
24 c-24 20 -28 32 -32 90 l-4 66 -379 0 -379 0 0 -65 c0 -56 -4 -70 -23 -89
l-23 -23 89 -7 c50 -3 132 -6 184 -6 104 0 125 -7 147 -48 9 -16 15 -21 16
-11 0 8 10 25 23 37 23 22 28 22 346 22 l322 0 24 -25 c24 -23 25 -30 25 -150
0 -120 -1 -127 -25 -150 l-24 -25 556 0 556 0 -6 817 c-4 450 -7 1116 -7 1481
l0 662 -45 0 -45 0 0 -930z"/>
<path d="M2532 2384 c-12 -8 -22 -24 -22 -36 0 -13 82 -104 231 -256 127 -131
235 -239 240 -240 22 -9 60 10 69 34 15 39 -7 70 -142 195 -67 63 -168 160
-224 217 -56 56 -108 102 -116 102 -7 0 -24 -7 -36 -16z"/>
<path d="M1430 1330 l0 -120 -150 0 -150 0 0 -550 0 -550 175 0 174 0 -24 25
c-24 23 -25 30 -25 145 0 68 5 130 11 141 6 12 25 27 42 34 18 8 25 14 15 15
-9 0 -28 14 -42 31 -24 29 -26 37 -26 139 0 123 9 152 54 174 20 10 25 16 13
16 -10 0 -29 12 -42 26 -24 26 -25 33 -25 151 0 175 -9 168 229 176 261 10
435 9 465 -3 14 -5 35 -24 46 -42 11 -18 20 -26 20 -17 0 8 12 26 26 40 29 27
24 27 457 22 l209 -3 28 -30 c28 -29 29 -30 35 -9 10 29 64 49 135 49 67 0 74
9 43 61 -32 54 -57 59 -322 59 l-240 0 -4 68 -3 67 -2 -72 -2 -73 -370 0 -370
0 0 69 0 68 -46 7 c-26 3 -111 6 -190 6 l-144 0 0 -120z"/>
</g>
</svg>
