<?xml version="1.0" standalone="no"?>
<!DOCTYPE svg PUBLIC "-//W3C//DTD SVG 20010904//EN"
 "http://www.w3.org/TR/2001/REC-SVG-20010904/DTD/svg10.dtd">
<svg version="1.0" xmlns="http://www.w3.org/2000/svg"
 width="512.000000pt" height="512.000000pt" viewBox="0 0 512.000000 512.000000"
 preserveAspectRatio="xMidYMid meet">
<metadata>
Created by potrace 1.16, written by Peter Selinger 2001-2019
</metadata>
<g transform="translate(0.000000,512.000000) scale(0.100000,-0.100000)"
fill="#000000" stroke="none">
<path d="M1580 3004 c-30 -8 -72 -26 -93 -40 -42 -28 -92 -99 -107 -154 -6
-19 -10 -178 -10 -361 l0 -326 302 -6 c376 -9 2985 -9 3016 -1 l22 6 -1 342
c0 234 -4 351 -12 373 -22 60 -72 117 -128 148 l-54 30 -1440 2 c-1244 2
-1447 0 -1495 -13z"/>
</g>
</svg>
