<?xml version="1.0" standalone="no"?>
<!DOCTYPE svg PUBLIC "-//W3C//DTD SVG 20010904//EN"
 "http://www.w3.org/TR/2001/REC-SVG-20010904/DTD/svg10.dtd">
<svg version="1.0" xmlns="http://www.w3.org/2000/svg"
 width="512.000000pt" height="512.000000pt" viewBox="0 0 512.000000 512.000000"
 preserveAspectRatio="xMidYMid meet">

<g transform="translate(0.000000,512.000000) scale(0.100000,-0.100000)"
fill="#000000" stroke="none">
<path d="M1045 3503 c-119 -27 -197 -70 -283 -155 -90 -89 -125 -179 -162
-415 l-12 -73 -156 0 c-181 0 -213 -7 -269 -55 -111 -95 -89 -277 42 -344 44
-23 63 -26 183 -30 l134 -3 -5 -32 c-3 -17 -11 -65 -18 -106 l-12 -75 -81 -39
c-61 -30 -98 -56 -151 -110 -124 -126 -175 -260 -175 -460 0 -180 34 -293 120
-409 l43 -57 1633 0 1633 0 40 53 c93 125 121 219 121 409 0 152 -13 218 -63
318 -47 95 -160 206 -262 257 l-80 40 -12 79 c-7 43 -14 91 -17 107 l-6 27
110 0 c144 0 197 12 250 58 93 79 105 202 29 295 -52 63 -83 71 -279 77 l-174
5 -22 130 c-23 137 -40 195 -76 254 -65 108 -155 183 -274 229 l-69 27 -830 2
c-456 0 -839 -1 -850 -4z m1661 -390 c17 -13 39 -38 47 -56 11 -23 137 -771
137 -813 0 -2 -12 -4 -28 -4 -27 0 -28 3 -40 76 -30 193 -171 350 -357 399
-250 65 -516 -86 -589 -334 -9 -30 -16 -74 -16 -98 l0 -43 -495 0 c-331 0
-495 3 -495 10 0 44 123 788 134 808 17 33 44 58 76 71 16 6 306 9 810 8 l785
-2 31 -22z m-226 -559 c106 -48 186 -154 197 -260 l6 -54 -343 0 -342 0 6 48
c10 69 60 165 109 208 106 92 242 114 367 58z m-1773 -690 c35 -22 45 -83 41
-242 l-3 -144 -33 -29 c-43 -39 -84 -39 -123 0 l-29 29 0 172 c0 103 4 179 11
191 13 26 67 50 94 42 11 -3 30 -11 42 -19z m2434 16 c6 0 21 -12 34 -26 25
-26 25 -30 25 -200 0 -165 -1 -174 -22 -199 -14 -15 -38 -28 -59 -31 -31 -5
-42 -1 -70 24 l-34 30 -3 164 c-2 118 1 170 10 188 15 28 76 63 96 55 8 -3 18
-5 23 -5z"/>
<path d="M3820 1480 l0 -1290 70 0 70 0 0 1290 0 1290 -70 0 -70 0 0 -1290z"/>
<path d="M628 683 l-178 -3 0 -171 c0 -182 5 -206 57 -281 l26 -38 198 0 199
0 29 41 c50 68 56 99 56 284 l0 170 -105 0 c-58 1 -185 -1 -282 -2z"/>
<path d="M2712 503 c3 -203 8 -224 66 -285 l26 -28 193 0 193 0 30 42 c50 69
61 125 58 299 l-3 154 -283 3 -284 2 4 -187z"/>
</g>
</svg>
