<?xml version="1.0" standalone="no"?>
<!DOCTYPE svg PUBLIC "-//W3C//DTD SVG 20010904//EN"
 "http://www.w3.org/TR/2001/REC-SVG-20010904/DTD/svg10.dtd">
<svg version="1.0" xmlns="http://www.w3.org/2000/svg"
 width="512.000000pt" height="512.000000pt" viewBox="0 0 512.000000 512.000000"
 preserveAspectRatio="xMidYMid meet">

<g transform="translate(0.000000,512.000000) scale(0.100000,-0.100000)"
fill="#000000" stroke="none">
<path d="M725 4269 c-87 -13 -195 -68 -259 -132 -77 -77 -123 -172 -140 -294
l-6 -43 2240 0 2240 0 -6 43 c-33 232 -190 395 -409 427 -87 12 -3574 11
-3660 -1z"/>
<path d="M753 3469 c-43 -13 -90 -62 -103 -107 -17 -64 -12 -143 13 -192 24
-48 88 -90 137 -90 49 0 113 42 138 90 20 38 23 56 19 120 -4 86 -24 130 -72
160 -39 24 -91 31 -132 19z"/>
<path d="M1393 3469 c-43 -13 -90 -62 -103 -107 -17 -64 -12 -143 13 -192 24
-48 88 -90 137 -90 49 0 113 42 138 90 20 38 23 56 19 120 -4 86 -24 130 -72
160 -39 24 -91 31 -132 19z"/>
<path d="M3633 3469 c-43 -13 -90 -62 -103 -107 -17 -64 -12 -143 13 -192 24
-48 88 -90 137 -90 49 0 113 42 138 90 20 38 23 56 19 120 -4 86 -24 130 -72
160 -39 24 -91 31 -132 19z"/>
<path d="M4273 3469 c-43 -13 -90 -62 -103 -107 -17 -64 -12 -143 13 -192 24
-48 88 -90 137 -90 49 0 113 42 138 90 20 38 23 56 19 120 -2 43 -11 89 -20
107 -31 58 -117 92 -184 72z"/>
<path d="M320 2000 l0 -680 120 0 119 0 3 563 3 562 24 45 c51 97 106 145 204
175 37 12 13 14 -215 14 l-258 1 0 -680z"/>
<path d="M2480 2000 l0 -680 1160 0 1160 0 0 680 0 680 -1160 0 -1160 0 0
-680z m1819 174 c20 -26 21 -39 21 -296 l0 -269 -25 -24 -24 -25 -591 0 -591
0 -24 25 -25 24 0 269 c0 257 1 270 21 296 l20 26 599 0 599 0 20 -26z"/>
<path d="M1090 1864 c-85 -18 -211 -80 -282 -138 -101 -82 -186 -212 -223
-340 -23 -78 -24 -259 -1 -346 59 -234 233 -415 471 -490 99 -31 271 -31 370
0 121 38 203 87 291 175 90 89 150 194 180 315 20 78 22 244 4 321 -17 76 -81
204 -135 271 -154 191 -428 286 -675 232z m293 -337 c82 -38 140 -95 184 -179
25 -47 28 -64 28 -148 0 -82 -4 -103 -27 -152 -34 -73 -103 -142 -176 -176
-49 -23 -70 -27 -152 -27 -82 0 -103 4 -151 26 -79 37 -133 90 -171 167 -28
55 -34 80 -37 149 -3 76 0 88 29 150 41 89 98 148 185 189 59 28 81 33 143 34
63 0 84 -5 145 -33z"/>
</g>
</svg>
