<?xml version="1.0" standalone="no"?>
<!DOCTYPE svg PUBLIC "-//W3C//DTD SVG 20010904//EN"
 "http://www.w3.org/TR/2001/REC-SVG-20010904/DTD/svg10.dtd">
<svg version="1.0" xmlns="http://www.w3.org/2000/svg"
 width="512.000000pt" height="512.000000pt" viewBox="0 0 512.000000 512.000000"
 preserveAspectRatio="xMidYMid meet">

<g transform="translate(0.000000,512.000000) scale(0.100000,-0.100000)"
fill="#000000" stroke="none">
<path d="M962 4807 c-27 -29 -28 -67 -3 -98 19 -23 24 -24 166 -24 142 0 147
1 166 24 25 30 24 72 -1 99 -20 21 -30 22 -164 22 -136 0 -143 -1 -164 -23z"/>
<path d="M1279 1601 c-51 -10 -98 -48 -120 -95 -17 -37 -19 -70 -19 -329 0
-313 2 -328 56 -379 16 -15 42 -32 57 -37 17 -7 127 -11 283 -11 l254 0 0 175
0 175 -178 0 c-174 0 -179 1 -200 23 -27 29 -28 77 -3 108 19 23 24 24 200 27
l181 3 0 175 0 174 -237 -1 c-131 -1 -254 -4 -274 -8z"/>
</g>
</svg>
