<?xml version="1.0" standalone="no"?>
<!DOCTYPE svg PUBLIC "-//W3C//DTD SVG 20010904//EN"
 "http://www.w3.org/TR/2001/REC-SVG-20010904/DTD/svg10.dtd">
<svg version="1.0" xmlns="http://www.w3.org/2000/svg"
 width="512.000000pt" height="512.000000pt" viewBox="0 0 512.000000 512.000000"
 preserveAspectRatio="xMidYMid meet">

<g transform="translate(0.000000,512.000000) scale(0.100000,-0.100000)"
fill="#000000" stroke="none">
<path d="M2375 4824 c-504 -104 -855 -526 -855 -1028 0 -430 253 -913 724
-1381 89 -88 189 -184 224 -213 92 -76 106 -74 235 37 138 119 357 347 460
478 239 306 384 599 432 872 16 92 21 279 10 349 -57 353 -262 639 -570 792
-159 80 -250 102 -435 106 -108 2 -176 -1 -225 -12z m333 -666 c259 -97 331
-440 132 -638 -151 -152 -399 -152 -550 0 -153 152 -153 398 0 550 109 110
268 144 418 88z"/>
</g>
</svg>
