<?xml version="1.0" standalone="no"?>
<!DOCTYPE svg PUBLIC "-//W3C//DTD SVG 20010904//EN"
 "http://www.w3.org/TR/2001/REC-SVG-20010904/DTD/svg10.dtd">
<svg version="1.0" xmlns="http://www.w3.org/2000/svg"
 width="512.000000pt" height="512.000000pt" viewBox="0 0 512.000000 512.000000"
 preserveAspectRatio="xMidYMid meet">

<g transform="translate(0.000000,512.000000) scale(0.100000,-0.100000)"
fill="#000000" stroke="none">
<path d="M1490 5069 c-14 -6 -36 -20 -48 -32 -52 -48 -52 -50 -52 -439 0 -345
1 -365 20 -396 32 -52 75 -74 141 -70 65 5 109 31 133 82 13 29 16 75 16 290
l0 256 270 0 270 0 0 -147 c0 -174 13 -214 81 -252 76 -43 169 -17 214 60 17
29 20 56 24 187 l3 152 263 0 263 0 4 -152 c5 -195 23 -234 119 -262 75 -22
147 7 181 75 15 28 18 61 18 187 l0 152 264 0 264 0 4 -152 c4 -166 12 -196
64 -237 65 -51 152 -45 210 13 44 44 54 89 54 244 l0 132 265 0 264 0 3 -268
3 -269 27 -35 c72 -94 215 -82 268 22 20 39 21 53 18 405 -3 349 -4 365 -24
391 -11 15 -33 37 -48 48 l-27 21 -1752 2 c-1151 1 -1761 -2 -1777 -8z"/>
<path d="M94 3756 c-17 -8 -44 -31 -60 -52 l-29 -37 0 -1756 c0 -1744 0 -1756
20 -1791 12 -21 39 -44 65 -57 43 -23 51 -23 389 -23 328 0 347 1 387 21 63
30 87 75 82 150 -4 51 -9 64 -38 94 -19 19 -50 40 -70 45 -19 5 -144 10 -277
10 l-243 0 0 270 0 270 158 0 c139 0 161 2 190 20 98 60 96 210 -4 267 -36 21
-52 23 -191 23 l-153 0 0 270 0 270 153 0 c139 0 155 2 191 23 100 57 102 207
4 267 -29 18 -51 20 -190 20 l-158 0 0 269 0 269 159 3 c177 4 191 9 238 79
49 71 17 182 -62 220 -36 17 -62 20 -188 20 l-147 0 0 270 0 270 264 0 c256 0
264 1 296 23 93 62 96 194 7 261 -28 20 -40 21 -395 23 -294 2 -373 0 -398
-11z"/>
</g>
</svg>
