<?xml version="1.0" standalone="no"?>
<!DOCTYPE svg PUBLIC "-//W3C//DTD SVG 20010904//EN"
 "http://www.w3.org/TR/2001/REC-SVG-20010904/DTD/svg10.dtd">
<svg version="1.0" xmlns="http://www.w3.org/2000/svg"
 width="512.000000pt" height="512.000000pt" viewBox="0 0 512.000000 512.000000"
 preserveAspectRatio="xMidYMid meet">

<g transform="translate(0.000000,512.000000) scale(0.100000,-0.100000)"
fill="#000000" stroke="none">
<path d="M413 4663 c-12 -2 -34 -18 -48 -34 -23 -28 -25 -38 -25 -135 0 -100
1 -105 29 -136 l29 -33 123 -4 122 -3 -34 30 -34 30 0 117 0 117 33 29 32 29
-102 -1 c-57 -1 -113 -4 -125 -6z"/>
<path d="M1091 4641 c29 -29 29 -31 29 -146 0 -115 0 -117 -29 -146 l-29 -29
96 1 c170 1 202 28 202 172 0 149 -31 177 -199 177 l-99 0 29 -29z"/>
<path d="M2489 1974 c-2 -5 -3 -406 -1 -892 l3 -882 630 0 629 0 0 335 0 335
649 0 c639 0 649 0 674 21 15 11 31 37 37 57 8 25 10 187 8 497 -3 491 -3 490
-53 514 -25 13 -2571 27 -2576 15z m2415 -230 c3 -9 6 -22 6 -31 0 -8 9 -26
20 -40 11 -14 20 -34 20 -44 0 -11 -9 -27 -20 -36 -18 -16 -20 -30 -20 -166 0
-134 2 -151 20 -174 11 -14 20 -34 20 -44 0 -11 -9 -28 -20 -39 -11 -11 -20
-33 -20 -49 0 -16 -6 -34 -14 -40 -9 -8 -209 -10 -732 -9 l-719 3 -6 80 c-3
44 -12 98 -19 120 -10 34 -10 44 5 71 18 34 17 64 -5 141 -10 36 -10 51 4 92
9 27 16 76 16 109 0 32 3 62 7 65 3 4 331 7 729 7 649 0 722 -2 728 -16z
m-1674 -274 l0 -110 -204 0 c-112 0 -211 3 -220 6 -13 5 -16 24 -16 104 0 69
4 100 13 103 6 3 105 6 220 6 l207 1 0 -110z"/>
</g>
</svg>
