<?xml version="1.0" standalone="no"?>
<!DOCTYPE svg PUBLIC "-//W3C//DTD SVG 20010904//EN"
 "http://www.w3.org/TR/2001/REC-SVG-20010904/DTD/svg10.dtd">
<svg version="1.0" xmlns="http://www.w3.org/2000/svg"
 width="512.000000pt" height="512.000000pt" viewBox="0 0 512.000000 512.000000"
 preserveAspectRatio="xMidYMid meet">

<g transform="translate(0.000000,512.000000) scale(0.100000,-0.100000)"
fill="#000000" stroke="none">
<path d="M4070 4806 l0 -206 -53 0 c-70 0 -286 -26 -427 -51 -291 -51 -619
-153 -892 -277 -121 -55 -370 -193 -520 -288 -421 -268 -799 -423 -1238 -509
-227 -44 -362 -57 -657 -62 l-283 -6 0 -150 0 -150 258 7 c289 7 480 25 680
62 482 88 910 254 1327 514 366 229 714 390 1046 485 221 64 574 125 716 125
l43 0 0 -190 c0 -104 3 -190 6 -190 12 0 1034 535 1034 541 0 3 -219 120 -487
259 -269 139 -503 262 -520 272 l-33 20 0 -206z"/>
<path d="M4550 3103 c-901 -25 -1411 -110 -1710 -287 -41 -24 -140 -92 -220
-150 -153 -112 -299 -193 -440 -244 -336 -123 -863 -192 -1592 -209 l-288 -6
0 -1044 0 -1043 563 0 c310 0 1327 -3 2260 -7 l1697 -6 0 1501 0 1502 -87 -2
c-49 -1 -131 -3 -183 -5z"/>
</g>
</svg>
